<svg xmlns="http://www.w3.org/2000/svg" xmlns:xlink="http://www.w3.org/1999/xlink" width="1140" height="280" viewBox="0 0 114 28"><symbol id="a" viewBox="0 -14 114 28"><path d="M112-8.5c0-1.925-1.575-3.5-3.5-3.5H5.5C3.575-12 2-10.425 2-8.5v17C2 10.425 3.575 12 5.5 12h103c1.925 0 3.5-1.575 3.5-3.5v-17z" fill="#FFF"/><path d="M108.5 12c1.925 0 3.5-1.575 3.5-3.5v-17c0-1.925-1.575-3.5-3.5-3.5H5.5C3.575-12 2-10.425 2-8.5v17C2 10.425 3.575 12 5.5 12h103m0 2H5.5C2.467 14 0 11.533 0 8.5v-17C0-11.533 2.467-14 5.5-14h103c3.033 0 5.5 2.467 5.5 5.5v17c0 3.033-2.467 5.5-5.5 5.5z"/><path fill="#F60" d="M81-4h4v-4h-4z"/><path d="M17 4.61h3.037V3.356h.047c.807 1.12 1.796 1.577 3.13 1.577 1.45 0 2.51-.71 2.856-1.966h.047c.482 1.303 1.635 1.966 3.13 1.966 2.097 0 3.085-1.302 3.085-3.68v-8.93h-3.178V.91c0 1.025-.344 1.597-1.242 1.597-1.012 0-1.656-.687-1.656-2.1v-8.09h-3.18V.91c0 1.027-.346 1.6-1.242 1.6-1.014 0-1.658-.687-1.658-2.1v-8.09H17V4.61zM34.358-1.533c0-4.27 1.06-6.533 4.882-6.465 3.637 0 4.88 2.262 4.88 6.465 0 4.27-1.058 6.533-4.88 6.466-3.638 0-4.882-2.262-4.882-6.466m3.18 0c0 2.513.136 4.317 1.702 4.317 1.29 0 1.703-1.257 1.703-4.317S40.53-5.85 39.24-5.85c-1.566 0-1.703 1.805-1.703 4.317M46.16-7.678h3.04v1.303h.046c.69-1.144 1.566-1.623 2.81-1.623 2.6 0 3.8 1.895 3.8 6.465s-1.2 6.466-3.8 6.466c-1.198 0-2.003-.48-2.67-1.462h-.047v5.163h-3.18v-16.31zm3.18 6.145c0 2.672.274 4.043 1.68 4.043 1.383 0 1.658-1.37 1.658-4.043s-.275-4.043-1.658-4.043c-1.406 0-1.68 1.37-1.68 4.043M58.227 8.814h3.176V6.12h-3.176v2.694zm0-4.203h3.176V-7.677h-3.176v12.29zM64.248 8.635h3.178v-16.31h-3.178zM78.982-1.95v.71c0 3.768-.828 6.234-4.535 6.234-4.28 0-4.925-3.06-4.925-6.352 0-3.06.183-6.578 4.788-6.578 2.994 0 4.375 1.598 4.49 4.455h-2.855c-.186-1.51-.62-2.31-1.68-2.31-1.176 0-1.566 1.418-1.566 2.856v.98h6.282zM72.7-.08v.48c0 1.143.366 2.445 1.632 2.445 1.314 0 1.543-1.053 1.613-2.926H72.7zM93.693-7.678h3.04v16.31h-3.18v-5.16h-.043c-.668.98-1.475 1.46-2.67 1.46-2.602 0-3.8-1.895-3.8-6.465s1.198-6.465 3.8-6.465c1.242 0 2.117.48 2.807 1.623h.047v-1.303zm-3.476 6.145c0 2.672.275 4.043 1.656 4.043 1.404 0 1.682-1.37 1.682-4.043s-.277-4.043-1.682-4.043c-1.38 0-1.656 1.37-1.656 4.043M108.295-2.014v.71c0 3.768-.828 6.237-4.535 6.237-4.283 0-4.928-3.062-4.928-6.352 0-3.06.186-6.58 4.79-6.58 2.99 0 4.374 1.6 4.49 4.456h-2.857c-.183-1.508-.622-2.307-1.68-2.307-1.175 0-1.567 1.415-1.567 2.853v.982h6.287zM102.008-.14v.48c0 1.142.37 2.443 1.637 2.443 1.312 0 1.54-1.05 1.61-2.923h-3.247z"/><path d="M5.6-12C3.61-12 2-10.39 2-8.4V8.4C2 10.39 3.61 12 5.6 12H14v-24H5.6z" fill="#F60"/></symbol><use xlink:href="#a" width="114" height="28" y="-14" transform="matrix(1 0 0 -1 0 14)" overflow="visible"/></svg>
