<?xml version="1.0" encoding="utf-8"?>
<!-- Generator: Adobe Illustrator 16.0.4, SVG Export Plug-In . SVG Version: 6.00 Build 0)  -->
<!DOCTYPE svg PUBLIC "-//W3C//DTD SVG 1.1//EN" "http://www.w3.org/Graphics/SVG/1.1/DTD/svg11.dtd">
<svg version="1.1" id="Layer_1" xmlns="http://www.w3.org/2000/svg" xmlns:xlink="http://www.w3.org/1999/xlink" x="0px" y="0px"
	 width="537.435px" height="516.923px" viewBox="0 0 537.435 516.923" enable-background="new 0 0 537.435 516.923"
	 xml:space="preserve">
<g>
	<g>
		<g>
			<path d="M52.408,425.981c0.649,2.521-0.627,5.845-1.054,8.352c-0.495,2.905-0.792,5.839-1.28,8.746
				c-0.944,5.619-1.819,10.688-4.362,15.841c-0.547,1.109-2.18,3.354-1.167,4.657c1.946,2.502,8.352,1.646,11.192,1.936
				c10.62,1.086,21.678,2.474,32.268,0.726c5.269-0.869,10.618-0.839,15.895-1.699c5.252-0.856,10.567-2.57,15.792-3.218
				c0.562-0.069,0.937-0.583,0.647-1.129c-1.864-3.521-2.577-7.007-3.748-10.745c-1.263-4.031-2.786-7.916-3.831-12.023
				c-1.281-5.034-2.004-10.139-2.078-15.33c-0.047-3.351,0.583-7.063-0.03-10.343c-0.178-0.95-1.623-0.547-1.446,0.398
				c0.785,4.198-0.095,9.175,0.069,13.466c0.158,4.107,1.105,8.222,2.039,12.207c0.964,4.113,2.431,8.048,3.831,12.023
				c1.341,3.811,1.986,7.49,3.899,11.104c0.216-0.377,0.432-0.753,0.647-1.129c-3.182,0.395-6.338,1.521-9.518,2.123
				c-5.675,1.077-11.341,1.824-17.107,2.177c-4.642,0.284-9.159,1.333-13.819,1.543c-5.283,0.237-11.041-0.533-16.324-0.95
				c-4.869-0.385-9.719-0.989-14.586-1.401c-4.479-0.38-0.787-4.74,0.115-6.553c0.953-1.915,1.4-3.971,1.851-6.049
				c1.015-4.678,1.572-9.524,2.235-14.266c0.492-3.519,2.22-7.348,1.315-10.862C53.613,424.646,52.166,425.043,52.408,425.981
				L52.408,425.981z"/>
		</g>
	</g>
	<g>
		<g>
			<path d="M103.438,464.961c0.871,2.092-0.485,6.795-0.694,8.986c-0.416,4.34-1.479,8.682-1.995,13.03
				c-0.05,0.424,0.38,0.729,0.75,0.75c3.007,0.177,5.532,1.325,8.437,1.743c2.37,0.341,4.241,2.371,1.126,2.861
				c-6.293,0.99-13.283,0.183-19.654,0.183c-1.074,0-2.147,0-3.221,0c-4.264,0-0.227-6.03,0.204-6.835
				c1.064-1.992,1.644-4.329,2.278-6.482c1.408-4.783,2.249-9.023,2.262-14.017c0.002-0.968-1.498-0.967-1.5,0
				c-0.017,6.437-1.579,12.396-3.78,18.421c-0.606,1.659-5.732,7.435-2.948,9.473c3.203,2.346,9.797,0.94,13.542,0.94
				c5.638,0,11.713,0.649,17.21-0.864c0.297-0.082,0.584-0.396,0.551-0.724c-0.425-4.171-8.104-5.117-11.111-5.824
				c-3.123-0.733-2.484-1.227-1.95-5.084c0.272-1.965,0.829-3.899,1.081-5.858c0.412-3.206,2.113-8.092,0.861-11.098
				C104.519,463.683,103.066,464.069,103.438,464.961L103.438,464.961z"/>
		</g>
	</g>
	<g>
		<g>
			<path d="M73.681,466.439c0.006,4.557,0.755,8.944,0.94,13.453c0.058,1.396,0.427,2.768,0.826,4.093
				c0.14,0.464,3.353,5.231,1.432,5.254c-4.328,0.052-8.667,1.409-13.01,1.808c-3.983,0.365-8.083,0.568-12.09,0.719
				c-5.309,0.2,1.729-2.766,3.393-3.403c3.128-1.199,6.286-2.979,9.465-3.921c3.019-0.894,2.555-1.734,2.555-4.799
				c0-4.971-0.697-9.915-0.887-14.88c-0.037-0.964-1.537-0.968-1.5,0c0.166,4.338,0.696,8.658,0.887,12.994
				c0.117,2.651,0.42,4.684-2.555,5.563c-1.907,0.564-3.833,1.82-5.769,2.515c-2.385,0.856-9.447,2.618-10.245,5.519
				c-0.854,3.102,6.8,1.832,8.226,1.715c4.146-0.339,8.315-0.309,12.447-0.91c3.718-0.543,8.483-0.549,11.894-2.018
				c0.28-0.12,0.458-0.566,0.345-0.847c-1.345-3.35-3.459-5.599-3.914-9.401c-0.537-4.492-0.934-8.911-0.94-13.453
				C75.179,465.472,73.679,465.471,73.681,466.439L73.681,466.439z"/>
		</g>
	</g>
	<g>
		<g>
			<path d="M52.993,427.458c0.14-4.458,0.702-8.82,1.305-13.214c0.13-0.945-1.315-1.354-1.446-0.398
				c-0.624,4.541-1.214,9-1.358,13.612C51.463,428.426,52.963,428.423,52.993,427.458L52.993,427.458z"/>
		</g>
	</g>
	<g>
		<g>
			<path d="M51.493,413.208c-0.285,7.222-4.717,13.103-7.885,19.321c-0.438,0.86,0.856,1.619,1.295,0.758
				c3.307-6.491,7.792-12.55,8.09-20.079C53.031,412.24,51.531,412.244,51.493,413.208L51.493,413.208z"/>
		</g>
	</g>
	<g>
		<g>
			<path d="M63.781,389.824c-7.163,0-11.905,0.521-17.077,5.883c-5.582,5.788-9.596,14.486-12.858,21.732
				c-0.394,0.875,0.898,1.639,1.295,0.758c2.64-5.863,5.91-11.321,9.318-16.766c2.029-3.242,4.226-5.961,7.375-8.164
				c3.513-2.456,7.902-1.943,11.947-1.943C64.748,391.324,64.748,389.824,63.781,389.824L63.781,389.824z"/>
		</g>
	</g>
	<g>
		<g>
			<path d="M101.943,390.904c8.324,0,15.488,2.402,17.974,11.01c1.671,5.786,1.978,12.015,3.622,17.765
				c1.647,5.761-0.086,11.789,0.756,17.62c0.24,1.661,1.324,2.553,1.775,4.191c0.478,1.736,1.309,2.954,1.471,4.673
				c-1.896,3.206-3.048,3.445-3.457,0.716c-0.148-0.546-0.335-1.078-0.561-1.596c-0.301-0.755-1.461-0.698-1.473,0.199
				c-0.013,1.004,0.173,5.469-0.746,3.153c-0.154-0.388-0.493-0.631-0.922-0.524c-2.08,0.519-3.329,1.471-5.039-0.645
				c-0.608-0.753-1.663,0.315-1.061,1.061c1.296,1.604,4.11,4.632,5.575,0.947c-0.09,0.226,0.009,0.575,0.193,0.729
				c0.814,0.686,0.859,0.868,1.845,0.841c0.243-0.007,0.542-0.133,0.648-0.371c0.773-1.749,0.981-3.271,1.006-5.191
				c-0.491,0.066-0.982,0.133-1.473,0.199c0.37,0.929,0.991,4.521,2.299,4.716c1.443,0.215,4.124,0.204,4.472-1.782
				c0.566-3.228-0.552-5.487-1.386-8.52c-0.522-1.899-1.693-3.496-1.693-5.636c0-3.032,0-6.064,0-9.097
				c0-8.562-2.571-18.512-5.267-26.627c-2.52-7.587-11.497-9.332-18.558-9.332C100.976,389.404,100.976,390.904,101.943,390.904
				L101.943,390.904z"/>
		</g>
	</g>
	<g>
		<g>
			<path d="M42.646,431.43c0.61,3.268-1.007,7.303-0.822,10.735c0.113,2.094,0.667,4.146,0.795,6.25
				c0.266,4.357-3.649,0.16-4.197-0.229c-0.215-0.152-0.539-0.124-0.757,0c-1.522,0.865-3.024,1.971-4.416,0.537
				c-0.25-0.257-0.604-0.262-0.909-0.117c-3.443,1.626-2.472-2.843-1.965-4.639c0.923-3.278,1.418-6.695,1.742-10.078
				c0.387-4.04,0.285-8.073,0.881-12.101c0.594-4.018,2.503-6.301,4.805-9.461c0.571-0.784-0.731-1.531-1.295-0.758
				c-3.016,4.141-4.457,6.442-5.207,11.512c-0.851,5.751-0.549,11.531-1.642,17.281c-0.573,3.017-2.315,6.279-1.551,9.387
				c0.325,1.317,2.318,1.976,3.365,1.151c0.633-0.498,2.308,0.462,2.948,0.682c0.797,0.274,1.81-0.565,2.375-0.968
				c1.71-1.218,2.726,2.407,5.02,1.398c2.231-0.981,2.514-3.01,2.184-5.311c-0.522-3.632-1.04-7.004-0.352-10.663
				c0.32-1.7,0.762-3.304,0.444-5.009C43.915,430.082,42.469,430.485,42.646,431.43L42.646,431.43z"/>
		</g>
	</g>
	<g>
		<g>
			<path d="M41.68,438.467c0.119-0.066,0.238-0.133,0.357-0.199c0.937-0.11,0.991-1.481,0-1.5
				c-4.635-0.086-9.092-0.991-13.511,0.864c-0.878,0.369-0.493,1.821,0.398,1.447c4.291-1.802,8.625-0.895,13.113-0.812
				c0-0.5,0-1,0-1.5c-0.706,0.083-0.857,0.176-1.417,0.639C39.873,438.023,40.94,439.079,41.68,438.467L41.68,438.467z"/>
		</g>
	</g>
	<g>
		<g>
			<path d="M120.937,435.311c-1.162,0.924-2.853,1.278-4.27,1.638c-1.881,0.477-3.702,1.125-5.605,1.522
				c-0.947,0.198-0.545,1.644,0.398,1.447c2.105-0.44,4.131-1.149,6.213-1.677c1.525-0.387,3.083-0.883,4.324-1.87
				C122.754,435.77,121.686,434.715,120.937,435.311L120.937,435.311z"/>
		</g>
	</g>
	<g>
		<g>
			<path d="M98.113,389.934c0.39,2.455-10.085,8.764-11.344,9.256c-7.65,2.989-14.869-1.941-19.235-7.738
				c-0.574-0.762-1.877-0.016-1.295,0.758c2.048,2.719,4.715,6.589,8.049,7.741c4.147,1.434,8.59,1.577,12.879,0.686
				c3.432-0.714,6.338-4.223,9.023-6.218c1.612-1.197,3.722-2.655,3.368-4.883C99.408,388.583,97.963,388.988,98.113,389.934
				L98.113,389.934z"/>
		</g>
	</g>
	<g>
		<g>
			<path d="M91.089,378.796c0.511,0.676,0.67,0.716,1.535,0.79c-0.066-0.491-0.133-0.982-0.199-1.474
				c-2.665,0.932-5.263,1.992-7.971,2.811c-1.938,0.586-4.012,1.007-6.03,1.105c-1.807,0.089-3.101-1.91-4.351-2.884
				c-0.753-0.587-1.823,0.466-1.061,1.061c2.479,1.934,3.429,3.818,6.942,3.231c4.515-0.755,8.586-2.381,12.869-3.877
				c0.818-0.286,0.647-1.401-0.199-1.474c-0.08-0.016-0.16-0.031-0.24-0.048C91.809,377.278,90.505,378.024,91.089,378.796
				L91.089,378.796z"/>
		</g>
	</g>
	<g>
		<g>
			<path d="M86.274,367.939c0-0.14,0-0.279,0-0.419c0-0.968-1.5-0.968-1.5,0c0,0.14,0,0.279,0,0.419
				C84.774,368.907,86.274,368.907,86.274,367.939L86.274,367.939z"/>
		</g>
	</g>
	<g>
		<g>
			<path d="M77.093,368.27c0.696-0.023,1.121-0.5,1.194-1.169c0.044-0.407-0.375-0.75-0.75-0.75c-0.442,0-0.706,0.344-0.75,0.75
				c0.325-0.272,0.392-0.377,0.202-0.315c0.121-0.013,0.155-0.018,0.104-0.016C76.128,366.802,76.125,368.302,77.093,368.27
				L77.093,368.27z"/>
		</g>
	</g>
	<g>
		<g>
			<path d="M95.644,376.852c1.804,1.884,1.015,5.913,2.892,8.082c1.089,1.258,2.854,0.379,3.537,1.302
				c1.162,1.572,2.523,1.449,3.98,0.561c2.463-1.502,0.916-3.771,1.078-5.863c-0.376,0.216-0.752,0.432-1.128,0.647
				c1.709,1.172,5.806,3.662,6.772,0.088c0.491-1.815,0.448-3.524,0.038-5.352c-0.291-1.297-2.119-2.499-1.86-3.746
				c0.829-4.001-0.938-7.777-3.831-10.402c-1.621-1.471-4.383-3.519-5.825-0.896c0.432,0,0.863,0,1.295,0
				c-0.671-0.968-0.022-2.381-0.894-3.295c-1.771-1.858-3.304-3.215-5.595-4.385c-0.822-0.42-1.593-0.651-2.473-0.862
				c0.991,0.238-2.192-2.46-2.25-2.507c-1.659-1.357-2.925-0.706-4.968-0.516c-2.844,0.266-5.1-0.451-7.788-0.936
				c-0.971-0.174-1.893-0.106-2.671,0.56c-1.607,1.377-1.543,0.672-3.297,0.672c-1.987,0-3.952,1.72-5.379,2.874
				c-3.886,3.141-7.97,6.885-10.356,11.328c-0.529,0.985-0.383,3.604-0.431,4.26c-0.134,1.827-1.232,2.897-0.754,4.701
				c1.094,4.126,1.309,8.884,4.113,12.347c1.896,2.342,3.146-3.032,3.324-3.544c-0.491-0.066-0.982-0.133-1.473-0.199
				c-0.322,3.652,2.896,5.06,5.021,2.035c1.532-2.181,1.71-5.753,1.803-8.322c0.135-3.714-1.505-10.028,2.735-11.928
				c0.881-0.395,0.118-1.688-0.757-1.295c-1.368,0.612-4.778,3.471-4.076,5.256c0.837,2.129,0.796,4.085,0.66,6.329
				c-0.119,1.965-0.138,3.731-0.515,5.693c-0.124,0.468-0.249,0.937-0.373,1.404c-0.162,2.578-1.162,2.854-3,0.827
				c0.079-0.889-1.211-0.955-1.473-0.199c-0.334,0.961-0.674,3.692-1.92,0.833c-1.023-2.345-1.873-4.755-1.987-7.34
				c-0.049-1.107-0.968-2.209-0.727-3.372c0.677-3.272,0.365,0.465,1.084-4.501c0.56-3.864,2.188-6.292,5.54-8.665
				c2.553-1.808,5.493-7.759,9.406-6.683c1.396,0.384,2.105-0.002,3.15-0.815c1.799-1.401,6.498,1.226,9.008,0.464
				c3.706-1.124,5.082,1.524,7.95,2.685c2.466,0.998,4.53,1.815,6.408,3.813c1.338,1.424,0.745,2.725,1.658,4.04
				c0.307,0.442,1.006,0.525,1.295,0c0.861-1.567,4.043,1.715,4.669,2.312c2.489,2.377,2.592,6.153,1.948,9.265
				c-0.066,0.319,0.035,0.686,0.345,0.847c2.031,1.059,2.129,3.27,2.11,5.159c-0.044,4.488-4.002,1.29-4.904,0.672
				c-0.506-0.348-1.088,0.127-1.128,0.647c-0.106,1.367-0.101,1.073,0.257,2.496c0.715,2.843-2.839,1.573-3.858,0.326
				c-0.253-0.311-0.801-0.276-1.061,0c-1.411,1.504-3.139-6.789-4.265-7.964C96.034,375.092,94.975,376.154,95.644,376.852
				L95.644,376.852z"/>
		</g>
	</g>
	<g>
		<g>
			<path d="M90.915,371.94c1.226,0.592,2.018,0.014,2.087-1.312c0.091-1.754-0.737-3.254-2.218-4.175
				c-0.487-0.304-1.128,0.091-1.128,0.647c0,0.279,0,0.559,0,0.838c0.466-0.126,0.932-0.252,1.397-0.379
				c-1.167-1.815-1.941-3.638-3.549-5.141c-1.302-1.217-3.205-1.584-4.886-1.91c-0.945-0.183-1.348,1.263-0.398,1.447
				c1.699,0.329,3.315,0.674,4.62,1.894c1.348,1.26,1.946,2.953,2.919,4.468c0.396,0.615,1.397,0.39,1.397-0.379
				c0-0.279,0-0.559,0-0.838c-0.376,0.216-0.752,0.432-1.128,0.647c0.735,0.457,1.356,1.134,1.415,2.038
				c0.022,0.35-0.038,0.729,0.23,0.858C90.805,370.227,90.043,371.52,90.915,371.94L90.915,371.94z"/>
		</g>
	</g>
	<g>
		<g>
			<path d="M57.772,501.607c-0.001-0.025-0.003-0.05-0.004-0.074c-0.316-0.241-0.633-0.482-0.949-0.724
				c0.09,2.848,0.918,4.906,2.556,7.206c0.883,1.241,2.515,3.684,4.307,3.622c2.333-0.08,3.049-2.788,3.818-4.561
				c1.196-2.755,1.385-6.631,1.469-9.62c-0.5,0-1,0-1.5,0c0.014,5.623,1.488,10.123,4.096,15.049
				c0.453,0.854,1.748,0.097,1.295-0.758c-2.485-4.692-3.878-8.928-3.891-14.291c-0.002-0.969-1.473-0.965-1.5,0
				c-0.053,1.887-0.322,3.732-0.672,5.585c-0.164,0.867-0.24,1.709-0.402,2.578c-0.208,1.12-0.903,1.565-1.118,2.536
				c-0.986,4.443-4.516-0.769-4.981-1.423c-1.335-1.875-1.904-3.616-1.977-5.924c-0.016-0.499-0.465-0.837-0.949-0.724
				c-0.498,0.118-0.629,0.33-0.892,0.764C55.975,501.679,57.272,502.433,57.772,501.607L57.772,501.607z"/>
		</g>
	</g>
	<g>
		<g>
			<path d="M82.173,503.629c0.569-0.077,0.779-0.46,0.968-0.943c0.118-0.302-0.073-0.699-0.345-0.847
				c-1.846-1-7.664-0.443-6.7,2.872c0.599,2.062,3.064,2.673,4.778,3.505c0.556,0.27,1.081,0.586,1.602,0.917
				c0.208,0.132,1.939,1.336,1.365,1.497c-1.402,0.395-3.071,0.651-4.529,0.746c-0.96,0.062-0.966,1.562,0,1.5
				c1.047-0.068,2.06-0.351,3.106-0.419c0.767-0.05,1.956-0.146,2.597-0.521c1.278-0.748,0.67-2.494-0.369-3.093
				c-1.04-0.598-1.939-1.363-3.014-1.922c-1.085-0.563-2.258-0.955-3.296-1.603c-1.419-0.886-0.488-1.844,0.589-2.284
				c0.994-0.406,2.167-0.413,3.115,0.1c-0.115-0.282-0.23-0.564-0.345-0.847c0.026-0.035,0.053-0.07,0.08-0.105
				C80.82,502.311,81.228,503.756,82.173,503.629L82.173,503.629z"/>
		</g>
	</g>
	<g>
		<g>
			<path d="M88.768,505.001c-0.372,4.904,13.324,3.153,9.222-2.134c-2.481-3.197-7.626-0.704-7.777,2.965
				c-0.186,4.493,4.463,7.559,8.624,7.044c0.947-0.117,0.958-1.618,0-1.5c-2.347,0.29-4.425-0.564-6.067-2.277
				c-2.851-2.975,0.82-8.33,4.16-5.171c1.723,1.631-2.573,2.341-3.309,2.368c-0.797,0.03-3.445-0.066-3.353-1.295
				C90.341,504.037,88.841,504.043,88.768,505.001L88.768,505.001z"/>
		</g>
	</g>
	<g>
		<g>
			<path d="M105.135,503.436c0.148-0.14,0.296-0.279,0.444-0.419c-0.427-0.177-0.854-0.354-1.28-0.53
				c0.183,3.132,2.271,5.64,3.133,8.581c0.199,0.678,1.292,0.756,1.446,0c0.37-1.813,0.098-3.659,0.553-5.459
				c0.402-1.59,1.934-2.101,3.361-2.398c0.947-0.198,0.545-1.645-0.398-1.447c-1.565,0.327-2.877,0.879-3.844,2.189
				c-1.389,1.882-0.684,4.592-1.117,6.717c0.482,0,0.964,0,1.446,0c-0.812-2.768-2.909-5.27-3.079-8.183
				c-0.038-0.652-0.789-0.994-1.28-0.53c-0.148,0.14-0.296,0.279-0.444,0.419C103.37,503.041,104.432,504.099,105.135,503.436
				L105.135,503.436z"/>
		</g>
	</g>
</g>
<g>
	<g>
		<g>
			<path d="M182.152,374.031c0.859,1.759-0.103,6.458-0.103,8.423c0,3.856,0.004,7.713,0.028,11.568
				c0.051,8.297,0.328,16.546,1.018,24.813c1.239,14.841,2.658,30.082,1.172,44.934c-0.341,3.405-0.757,5.183,2.572,6.048
				c5.982,1.556,13.104,0.989,19.223,0.989c15.264,0,30.518,2.096,45.812,2.096c7.186,0,14.296,0.139,21.463,0.699
				c7.798,0.609,15.673-0.516,23.503-0.07c6.204,0.352,12.815,0.344,18.892-1.128c2.646-0.641,5.484-0.538,8.098-1.257
				c0.672-0.185,2.286-0.019,2.827-0.56c0.854-0.854,0.6-2.006,0.476-3.096c-0.346-3.035-0.726-6.067-1.062-9.104
				c-0.878-7.924-1.476-15.817-1.582-23.79c-0.21-15.656,0.17-31.33,0.17-46.988c0-6.897-0.191-14.229,0.608-21.066
				c0.647-5.53-6.397-3.695-9.987-4.263c-7.722-1.223-16.294-0.223-24.047,0.419c-8.956,0.742-17.926,1.531-26.897,2.069
				c-18.846,1.129-37.443,2.076-56.343,1.891c-8.693-0.085-17.389-0.043-26.083-0.043c-4.46,0-1.501,10.138-1.194,12.485
				c0.124,0.945,1.625,0.957,1.5,0c-0.439-3.351-0.817-6.678-0.888-10.06c-0.035-1.67,8.823-0.926,9.824-0.926
				c8.244,0,16.485,0.042,24.729,0.123c16.251,0.159,32.252-1.174,48.454-1.971c14.856-0.731,29.594-2.764,44.486-2.764
				c3.099,0,6.096,0.271,9.162,0.664c2.755,0.354,6.122-0.522,5.677,3.286c-0.762,6.506-0.502,13.586-0.502,20.154
				c0,15.661-0.306,31.328-0.17,46.988c0.063,7.374,0.626,14.674,1.39,22.006c0.34,3.257,0.783,6.505,1.084,9.766
				c0.227,2.443-0.408,3.234-2.885,3.357c-6.251,0.311-12.316,2.157-18.637,2.481c-7.79,0.4-15.674-0.363-23.502-0.075
				c-6.973,0.256-13.897-0.67-20.873-0.729c-8.301-0.07-16.526,0.008-24.812-0.522c-12.26-0.784-24.583-1.573-36.868-1.573
				c-2.689,0-5.333-0.809-7.987-0.838c-3.628-0.039-4.493,0.568-4.229-3.333c0.41-6.06,0.542-12.036,0.542-18.133
				c0-13.214-1.882-26.301-2.374-39.483c-0.239-6.424-0.269-12.854-0.285-19.281c-0.008-3.168-0.003-6.336-0.003-9.504
				c0-1.915,0.747-3.723-0.103-5.461C183.022,372.404,181.729,373.165,182.152,374.031L182.152,374.031z"/>
		</g>
	</g>
	<g>
		<g>
			<path d="M184.33,384.016c23.309-4.412,47.073-4.266,70.684-5.087c12.473-0.434,24.919,0.097,37.37-0.818
				c5.209-0.383,10.442-0.74,15.631-1.314c4.953-0.548,12.229-2.479,17.027-0.745c0.912,0.329,1.301-1.121,0.398-1.447
				c-4.153-1.501-9.879-0.137-14.184,0.333c-5.713,0.623-11.418,0.874-17.12,1.526c-12.994,1.485-26.084,0.352-39.123,0.966
				c-23.779,1.121-47.588,0.693-71.082,5.14C182.981,382.75,183.385,384.195,184.33,384.016L184.33,384.016z"/>
		</g>
	</g>
	<g>
		<g>
			<path d="M188.261,377.005c0.072,1.018,0.525,1.645,1.391,2.165c0.908,0.547,2.338,0.262,3.317,0.018
				c2.253-0.562,2.96-3.207,2.063-5.119c-0.939-2.003-3.615-2.439-5.485-1.656c-2.564,1.073-1.727,3.937-0.739,5.81
				c0.451,0.855,1.746,0.098,1.295-0.758c-0.557-1.057-1.579-3.011,0.097-3.712c1.051-0.44,2.354-0.229,3.164,0.546
				c0.953,0.913,0.71,2.597-0.375,3.276c-0.791,0.495-3.133,0.776-3.228-0.569C189.694,376.046,188.193,376.04,188.261,377.005
				L188.261,377.005z"/>
		</g>
	</g>
	<g>
		<g>
			<path d="M199.458,375.707c1.067,1.891,3.365,1.85,5.309,1.576c2.006-0.282,4.071-2.409,2.881-4.533
				c-1.096-1.956-3.919-2.603-5.83-1.539c-0.91,0.506-1.866,1.404-1.98,2.496c-0.044,0.426-0.465,0.676-0.389,1.199
				c0.094,0.651,0.558,1.098,0.897,1.64c0.512,0.816,1.811,0.064,1.295-0.758c-0.319-0.509-0.776-0.771-0.444-1.338
				c0.405-0.691,0.343-1.22,1.079-1.756c1.132-0.823,3.061-0.602,3.927,0.545c1.19,1.575-1.056,2.553-2.212,2.611
				c-1.161,0.059-2.599,0.23-3.237-0.901C200.278,374.107,198.982,374.863,199.458,375.707L199.458,375.707z"/>
		</g>
	</g>
	<g>
		<g>
			<path d="M214.025,373.851c0.688,2.216,3.889,2.438,5.785,2.182c2.298-0.311,3.169-2.618,1.135-3.986
				c-2.032-1.368-5.933-1.848-7.908-0.225c-1.89,1.553-0.051,5.22,1.798,3.198c0.651-0.712-0.406-1.775-1.061-1.061
				c-0.148,0.107-0.199-0.009-0.154-0.349c0.289-0.495,0.619-0.794,1.122-1.038c0.539-0.262,0.86-0.262,1.441-0.22
				c1.348,0.098,2.809,0.329,4.004,0.988c1.628,0.897-1.237,1.294-1.779,1.289c-0.82-0.008-2.641-0.219-2.938-1.178
				C215.186,372.532,213.738,372.925,214.025,373.851L214.025,373.851z"/>
		</g>
	</g>
	<g>
		<g>
			<path d="M312.751,471.542c1.174-0.791,0.799-1.727,0.7-3.162c-0.257-3.74-0.772-7.461-0.772-11.219
				c0-8.219-1.212-16.445-1.842-24.66c-1.362-17.771-0.043-35.63-1.264-53.4c-0.066-0.96-1.566-0.966-1.5,0
				c1.096,15.955-0.481,32.042,0.631,47.993c0.247,3.53,0.704,7.169,1.144,10.688c0.428,3.421-0.135,7.13,0.609,10.501
				c0.889,4.029,0.61,7.939,0.791,12.028c0.056,1.27,1.565,9.383,0.746,9.936C311.197,470.784,311.947,472.084,312.751,471.542
				L312.751,471.542z"/>
		</g>
	</g>
	<g>
		<g>
			<path d="M321.048,388.436c-4.72,1.651-9.953,1.256-14.644,2.935c-0.904,0.324-0.514,1.773,0.398,1.447
				c4.69-1.68,9.922-1.284,14.644-2.935C322.354,389.566,321.964,388.117,321.048,388.436L321.048,388.436z"/>
		</g>
	</g>
	<g>
		<g>
			<path d="M317.391,383.292c0,0.14,0,0.279,0,0.419c0.376-0.216,0.752-0.432,1.128-0.647c-1.065-0.699-2.178-1.551-2.837-2.666
				c-0.187-0.316-0.506-0.394-0.847-0.345c-0.943,0.136-1.58,1.385-1.992,2.113c-0.538,0.949-1.148,2.111-1.222,3.221
				c-0.023,0.35,0.25,0.613,0.551,0.724c1.202,0.438,2.51,0.062,3.75,0.026c0.965-0.027,0.968-1.527,0-1.5
				c-1.08,0.03-2.31,0.406-3.351,0.026c0.184,0.241,0.367,0.482,0.551,0.724c0.045-0.679,0.484-1.422,0.779-2.015
				c0.222-0.446,0.777-1.793,1.333-1.872c-0.282-0.115-0.564-0.23-0.847-0.345c0.793,1.341,2.089,2.36,3.375,3.203
				c0.483,0.317,1.128-0.102,1.128-0.647c0-0.14,0-0.279,0-0.419C318.891,382.325,317.391,382.325,317.391,383.292L317.391,383.292z
				"/>
		</g>
	</g>
	<g>
		<g>
			<path d="M324.354,458.651c0.147,0,0.296,0,0.443,0c0-0.5,0-1,0-1.5c-1.014,0.021-2.027,0.048-3.031,0.203
				c-1.618,0.252-3.296,1.012-4.914,1.102c-2.027,0.112-4.956,0.51-6.633,1.731c-0.774,0.563-0.026,1.865,0.757,1.295
				c1.495-1.088,4.899-1.472,6.722-1.573c0.85-0.047,1.88-0.58,2.719-0.793c1.432-0.365,2.912-0.436,4.381-0.465
				c0.966-0.02,0.969-1.5,0-1.5c-0.147,0-0.296,0-0.443,0C323.386,457.151,323.386,458.651,324.354,458.651L324.354,458.651z"/>
		</g>
	</g>
	<g>
		<g>
			<path d="M319.712,462.89c0.3,0.63-0.01,1.108-0.403,1.609c-0.398,0.508-0.763,0.981-1.003,1.585c0.482,0,0.964,0,1.446,0
				c-0.457-1.195-1.321-2.165-1.775-3.353c-0.064,0.243-0.128,0.486-0.193,0.729c0.171-0.133,0.918-0.149,1.235-0.169
				c0.594-0.036,1.19-0.031,1.785-0.031c0.967,0,0.967-1.5,0-1.5c-1.278,0-3.007-0.194-4.081,0.64
				c-0.19,0.147-0.277,0.509-0.193,0.729c0.457,1.195,1.322,2.165,1.775,3.353c0.275,0.72,1.166,0.703,1.446,0
				c0.283-0.709,0.937-1.232,1.298-1.903c0.435-0.807,0.339-1.646-0.043-2.447C320.591,461.259,319.298,462.021,319.712,462.89
				L319.712,462.89z"/>
		</g>
	</g>
	<g>
		<g>
			<path d="M321.161,431.605c0.148,0.14,0.295,0.279,0.443,0.419c0.177-0.427,0.354-0.854,0.53-1.28
				c-4.156,0.018-8.112,1.417-12.18,2.123c-0.952,0.166-0.547,1.611,0.398,1.447c3.926-0.682,7.773-2.054,11.782-2.07
				c0.639-0.003,1.013-0.824,0.531-1.28c-0.148-0.14-0.296-0.279-0.444-0.419C321.52,429.88,320.457,430.94,321.161,431.605
				L321.161,431.605z"/>
		</g>
	</g>
	<g>
		<g>
			<path d="M321.691,409.787c-4.567,0.01-8.808,1.359-13.312,1.677c-0.959,0.067-0.966,1.568,0,1.5
				c4.503-0.317,8.752-1.667,13.312-1.677C322.659,411.285,322.659,409.785,321.691,409.787L321.691,409.787z"/>
		</g>
	</g>
	<g>
		<g>
			<path d="M223.317,494.368c0,0.14,0,0.279,0,0.419c0,0.832,1.292,1.041,1.473,0.199c1.02-4.756,0.805-10.381-0.444-15.069
				c-0.249-0.934-1.696-0.537-1.446,0.398c1.157,4.343,1.393,9.847,0.444,14.272c0.491,0.066,0.982,0.133,1.473,0.199
				c0-0.14,0-0.279,0-0.419C224.817,493.4,223.317,493.4,223.317,494.368L223.317,494.368z"/>
		</g>
	</g>
	<g>
		<g>
			<path d="M217.992,478.439c0,0.14,0,0.28,0,0.42c0,0.516,0.476,0.815,0.949,0.724c1.688-0.329,10.752-2.094,7.536,1.261
				c-1.258,1.312-2.905,2.17-4.271,3.354c-0.55,0.477-0.051,1.214,0.53,1.28c2.174,0.249,4.427,0.176,6.423,1.193
				c1.629,0.925,1.977,2.295,1.043,4.108c-0.634,0.252-1.267,0.509-1.897,0.769c-0.997,0.409-2.087,0.493-3.106,0.838
				c-0.911,0.309-0.52,1.758,0.398,1.447c3.068-1.038,7.949-1.29,6.612-5.678c-1.217-3.991-6.182-3.802-9.473-4.178
				c0.177,0.427,0.354,0.854,0.53,1.28c1.753-1.52,5.731-3.23,5.63-5.994c-0.144-3.933-8.562-1.477-10.354-1.128
				c0.316,0.241,0.633,0.482,0.949,0.724c0-0.14,0-0.28,0-0.42C219.492,477.471,217.992,477.471,217.992,478.439L217.992,478.439z"
				/>
		</g>
	</g>
	<g>
		<g>
			<path d="M234.339,482.44c1.463,0.682,1.094,2.482,1.43,3.743c0.479,1.801,1.019,3.537,1.851,5.209
				c0.348,0.698,1.378,0.326,1.397-0.379c0.049-1.789,0.417-3.521,0.861-5.249c0.241-0.938-1.206-1.335-1.446-0.398
				c-0.478,1.856-0.861,3.727-0.915,5.647c0.466-0.126,0.932-0.252,1.397-0.379c-1.036-2.08-1.471-4.147-1.863-6.402
				c-0.213-1.219-0.782-2.541-1.956-3.087C234.225,480.74,233.462,482.032,234.339,482.44L234.339,482.44z"/>
		</g>
	</g>
	<g>
		<g>
			<path d="M248.474,486.734c0.148,0,0.295,0,0.443,0c0.609,0,1.054-0.848,0.53-1.28c-1.478-1.221-3.642-1.592-5.11-0.21
				c-1.14,1.074-1.615,3.422-0.672,4.734c0.49,0.682,1.292,1.014,2.067,1.256c0.793,0.248,1.613,0.745,2.496,0.503
				c1.65-0.454,0.863-3.43,1.336-4.536c0.376-0.88-0.916-1.645-1.295-0.758c-0.336,0.786-0.329,1.633-0.38,2.475
				c-0.028,0.462-0.064,0.953-0.258,1.38c0.061-0.012,0.122-0.023,0.184-0.035c-0.207,0-0.412-0.017-0.616-0.051
				c-0.322-0.051-0.455-0.265-0.746-0.341c-0.519-0.134-1.034-0.279-1.452-0.633c-0.51-0.431-0.256-1.028-0.216-1.578
				c0.142-1.953,2.285-2.232,3.601-1.146c0.177-0.427,0.354-0.854,0.53-1.28c-0.148,0-0.295,0-0.443,0
				C247.506,485.234,247.506,486.734,248.474,486.734L248.474,486.734z"/>
		</g>
	</g>
	<g>
		<g>
			<path d="M251.783,483.009c-0.001-0.025-0.003-0.05-0.004-0.074c-0.308-0.175-0.615-0.35-0.922-0.524
				c0.676,1.902,1.42,3.788,2.186,5.655c0.423,1.031,1.13,2.502,2.332,2.833c2.745,0.755,2.305-5.378,2.697-6.393
				c-0.308,0.175-0.615,0.35-0.922,0.524c1.96,0.724,1.866,2.83,3.371,3.696c1.387,0.799,2.544,1.913,4.172,2.172
				c0.473,0.074,0.949-0.195,0.949-0.724c0-2.375,0-4.751,0-7.126c0-0.968-1.5-0.968-1.5,0c0,2.375,0,4.751,0,7.126
				c0.316-0.241,0.633-0.482,0.949-0.724c-3.741-0.593-4.314-4.676-7.543-5.868c-0.411-0.151-0.785,0.169-0.922,0.524
				c-0.243,0.628-0.321,1.195-0.375,1.86c0.002-0.025-0.235,4.067-1.212,2.727c-1.264-1.734-2.028-4.692-2.735-6.683
				c-0.141-0.396-0.502-0.623-0.922-0.524c-0.498,0.118-0.629,0.33-0.892,0.764C249.986,483.082,251.283,483.835,251.783,483.009
				L251.783,483.009z"/>
		</g>
	</g>
	<g>
		<g>
			<path d="M274.21,482.124c0.799-0.04,1.149-0.367,1.194-1.17c0.017-0.306-0.239-0.671-0.551-0.724
				c-2.265-0.377-7.353,2.379-5.58,5.278c0.991,1.62,2.75,2.556,4.46,3.242c0.337,0.136,2.985,1.336,2.335,1.601
				c-0.711,0.288-1.545,0.317-2.302,0.332c-0.966,0.02-0.968,1.52,0,1.5c0.941-0.019,4.858-0.29,4.089-2.184
				c-0.449-1.104-1.56-1.815-2.628-2.257c-1.283-0.53-2.51-0.965-3.592-1.87c-2.22-1.858,0.595-4.566,2.82-4.195
				c-0.184-0.241-0.367-0.482-0.551-0.724c0.102-0.11,0.204-0.22,0.306-0.33C273.248,480.671,273.243,482.171,274.21,482.124
				L274.21,482.124z"/>
		</g>
	</g>
	<g>
		<g>
			<path d="M279.157,484.536c1.31,0.69,2.229,1.627,3.781,1.248c1.129-0.275,2.311-0.896,2.646-2.115
				c0.613-2.229-2.604-3.819-4.193-2.419c-1.763,1.553-2.216,4.202-1.112,6.289c1.333,2.52,4.003,3.483,6.602,4.198
				c0.934,0.257,1.33-1.19,0.398-1.447c-2.444-0.672-5.118-1.532-5.944-4.204c-0.391-1.265-0.041-2.515,0.803-3.499
				c1.734-0.139,2.304,0.242,1.708,1.146c-0.462,0.394-0.994,0.608-1.593,0.644c-0.708,0.094-1.747-0.823-2.338-1.135
				C279.06,482.79,278.301,484.084,279.157,484.536L279.157,484.536z"/>
		</g>
	</g>
	<g>
		<g>
			<path d="M288.324,484c0.806,0.891,1.184,1.906,1.582,3.021c0.43,1.204,1.165,2.273,1.305,3.573c0.101,0.938,1.519,0.987,1.5,0
				c-0.037-1.916-0.335-3.803,0.785-5.488c0.451-0.68,0.633-1.637,1.04-2.375c0.516-0.935,1.204-1.748,1.949-2.504
				c0.68-0.688-0.38-1.75-1.061-1.061c-1.373,1.391-2.393,2.976-3.12,4.788c-0.44,1.099-0.922,1.839-1.098,3.02
				c-0.177,1.188-0.019,2.427,0.004,3.62c0.5,0,1,0,1.5,0c-0.158-1.462-0.816-2.622-1.358-3.972s-0.974-2.585-1.968-3.684
				C288.734,482.22,287.677,483.285,288.324,484L288.324,484z"/>
		</g>
	</g>
</g>
<g>
	<g>
		<path d="M-380.513,28.167c1.935,0,1.935-3,0-3S-382.448,28.167-380.513,28.167L-380.513,28.167z"/>
	</g>
</g>
<g>
	<g>
		<g>
			<g>
				<path d="M189.935,227.428c3.953,0.623,5.852-2.57,8.72-4.92c5.409-4.435,11.196-7.827,17.329-11.123
					c5.272-2.833,10.105-6.453,14.909-10.02c4.682-3.476,10.139-2.37,15.819-2.294c14.224,0.19,28.476,0.423,42.662-0.841
					c6.712-0.598,13.349-1.811,20.061-2.386c1.452-0.125,3.589-0.199,4.882-0.766c0.561-0.246,2.268-0.56,2.718-1.08
					c-0.998,1.152-2.251,1.385-3.182,2.417c-4.093,4.54-9.416,7.594-14.201,11.316c-4.737,3.686-8.017,9.494-12.121,13.841
					c-1.641,1.737-3.358,3.481-4.744,5.436c-1.195,1.687-2.325,4.176-4.791,4.395c-1.819,0.161-3.763-0.031-5.588-0.065
					c-6.842-0.127-13.673-0.336-20.517-0.364c-14.126-0.057-28.248-0.409-42.375-0.409c-4.459,0-8.931-0.12-13.389-0.021
					c-1.708,0.038-4.648-0.083-5.384,1.829c-0.348,0.904,1.103,1.292,1.446,0.398c0.618-1.604,8.601-0.707,10.279-0.707
					c6.778,0,13.557-0.018,20.334,0.04c14.693,0.125,29.413,0.173,44.1,0.589c4.01,0.114,10.715,1.706,14.19-0.784
					c1.562-1.119,2.895-4.021,3.959-5.361c2.151-2.709,4.75-5.03,6.935-7.711c4.381-5.377,8.417-9.997,14.168-13.985
					c4.432-3.073,9.224-6.659,12.752-10.73c0.319-0.368,0.282-0.912-0.152-1.178c-1.877-1.151-4.627,0.7-6.567,1.01
					c-6.884,1.101-13.988,1.747-20.921,2.574c-13.445,1.604-27.158,1.269-40.669,1.094c-3.234-0.042-6.469-0.088-9.703-0.125
					c-2.335-0.026-5.672-0.636-7.917-0.019c-1.084,0.298-1.908,1.884-2.842,2.59c-2.493,1.884-5.083,3.53-7.56,5.434
					c-5.134,3.946-11.197,6.305-16.618,9.79c-1.95,1.254-3.844,2.622-5.676,4.041c-2.221,1.72-6.915,7.125-9.948,6.647
					C189.388,225.833,188.981,227.278,189.935,227.428L189.935,227.428z"/>
			</g>
		</g>
		<g>
			<g>
				<path d="M188.868,228.572c-2.96,1.748-0.962,8.177-0.749,10.869c0.562,7.067,2.334,13.789,3.261,20.796
					c0.747,5.644,1.184,11.406,2.024,16.965c0.068,0.45,0.736,1.301,1.298,1.312c2.517,0.051,5.247-1.089,7.807-1.388
					c14.547-1.695,28.915-2.836,43.576-3.188c6.881-0.165,13.822-0.355,20.684-0.934c6.163-0.519,14.993-1.371,20.611,1.713
					c0.848,0.466,1.605-0.829,0.757-1.295c-3.412-1.873-7.442-1.82-11.233-2.166c-6.206-0.565-12.503,0.614-18.706,0.773
					c-12.623,0.325-25.21,0.909-37.829,1.482c-5.589,0.254-11.172,0.948-16.678,1.93c-2.553,0.456-5.029,0.606-7.544,1.257
					c-1.024,0.266-2.153-7.955-2.282-8.588c-1.252-6.128-1.498-12.367-2.922-18.492c-0.773-3.324-0.998-6.783-1.323-10.178
					c-0.141-1.481-1.674-8.582,0.005-9.574C190.457,229.375,189.703,228.079,188.868,228.572L188.868,228.572z"/>
			</g>
		</g>
		<g>
			<g>
				<path d="M284.891,267.322c0.148,0.279,0.296,0.559,0.444,0.839c0.369,0.695,1.358,0.326,1.397-0.379
					c0.226-4.078-1.631-8.364-2.464-12.34c-1.247-5.95-1.085-11.795-1.085-17.838c0-0.967-1.5-0.967-1.5,0
					c0,4.958-0.263,9.927,0.505,14.833c0.769,4.908,3.318,10.395,3.044,15.346c0.466-0.126,0.932-0.252,1.397-0.379
					c-0.148-0.279-0.296-0.559-0.444-0.839C285.733,265.709,284.439,266.467,284.891,267.322L284.891,267.322z"/>
			</g>
		</g>
		<g>
			<g>
				<path d="M290.624,274.867c5.359-7.588,10.631-13.969,18.424-19.222c3.345-2.255,6.597-4.639,9.928-6.916
					c1.131-0.773,6.432-3.324,6.362-4.839c-0.135-2.921-1.091-5.862-1.818-8.691c-1.221-4.758-1.768-9.608-2.468-14.471
					c-1.239-8.601-3.217-17.601-3.257-26.297c-0.004-0.967-1.5-0.967-1.5,0c0,0.14,0,0.279,0,0.419c0,0.967,1.5,0.967,1.5,0
					c0-0.14,0-0.279,0-0.419c-0.5,0-1,0-1.5,0c0.035,7.652,1.659,15.492,2.779,23.048c0.641,4.327,1.251,8.658,1.864,12.989
					c0.491,3.474,1.167,8.505,2.561,11.706c1.038,2.383-8.189,7.258-9.771,8.371c-3.508,2.466-6.959,4.952-10.373,7.54
					c-5.928,4.495-9.777,10.011-14.025,16.025C288.769,274.901,290.07,275.65,290.624,274.867L290.624,274.867z"/>
			</g>
		</g>
		<g>
			<g>
				<path d="M269.565,242.721c-3.796,0-8.144-0.587-11.737,0.865c-0.885,0.357-0.499,1.809,0.398,1.446
					c3.439-1.389,7.693-0.811,11.339-0.811C270.532,244.221,270.532,242.721,269.565,242.721L269.565,242.721z"/>
			</g>
		</g>
		<g>
			<g>
				<path d="M270.518,245.757c-1.39,0.915-3.902,0.316-5.501,0.317c-2.413,0.002-4.799,0.114-7.188,0.446
					c-0.955,0.132-0.547,1.578,0.398,1.446c2.907-0.403,5.908-0.509,8.839-0.349c1.409,0.076,2.975,0.248,4.209-0.565
					C272.079,246.523,271.328,245.224,270.518,245.757L270.518,245.757z"/>
			</g>
		</g>
		<g>
			<g>
				<path d="M270.896,249.427c-3.953-0.08-7.941-1.133-11.736,0.446c-0.88,0.366-0.495,1.818,0.398,1.446
					c3.66-1.522,7.528-0.469,11.338-0.392C271.864,250.947,271.862,249.447,270.896,249.427L270.896,249.427z"/>
			</g>
		</g>
		<g>
			<g>
				<path d="M271.404,251.625c-1.971,1.042-5.68,0.284-7.867,0.354c-2.662,0.086-5.304,0.848-7.927,1.247
					c-0.954,0.145-0.547,1.59,0.398,1.446c3.266-0.497,6.416-1.23,9.74-1.23c2.043,0,4.542,0.468,6.413-0.522
					C273.017,252.468,272.258,251.173,271.404,251.625L271.404,251.625z"/>
			</g>
		</g>
	</g>
	<g>
		<g>
			<path d="M208.048,286.423c0.656,3.313,2.115,8.729,5.849,9.746c0.239,0.064,0.563,0.008,0.729-0.193
				c2.076-2.504,1.551-6.298,1.551-9.333c-0.491,0.066-0.982,0.133-1.473,0.199c0.909,3.744,4.917,6.944,8.332,8.412
				c0.344,0.148,0.614,0.116,0.909-0.117c1.085-0.859,0.663-3.054,0.663-4.219c0-2.701-0.31-5.185-0.914-7.827
				c-0.215-0.943-1.662-0.543-1.446,0.398c0.75,3.282,0.906,6.525,0.853,9.88c-0.01,0.612-2.412-1.655-2.858-1.925
				c-2.037-1.229-3.514-2.617-4.093-5.001c-0.202-0.832-1.473-0.64-1.473,0.199c0,1.336,0.008,2.673-0.015,4.009
				c-0.023,1.374-0.553,5.136-2.451,2.539c-1.411-1.931-2.264-4.876-2.718-7.166C209.307,285.077,207.861,285.479,208.048,286.423
				L208.048,286.423z"/>
		</g>
	</g>
	<g>
		<g>
			<path d="M228.654,291.365c1.522,1.838,6.027,2.357,7.417,0.085c0.55-0.898,0.126-2.002-0.566-2.667
				c-1.035-0.993-3.112-1.162-4.444-0.932c-3.141,0.544-4.707,3.605-2.858,6.372c1.469,2.198,5.044,2.745,7.393,1.946
				c0.911-0.311,0.52-1.759-0.398-1.447c-1.407,0.479-3.008,0.334-4.36-0.263c-1.661-0.732-2.711-2.991-1.231-4.428
				c0.712-0.692,1.881-0.776,2.809-0.745c0.714,0.024,2.318,0.232,2.401,1.184c0.077,0.873-1.457,0.872-1.979,0.871
				c-1.167-0.002-2.328-0.079-3.122-1.037C229.097,289.558,228.042,290.625,228.654,291.365L228.654,291.365z"/>
		</g>
	</g>
	<g>
		<g>
			<path d="M240.277,284.459c0.148,0,0.296,0,0.444,0c-0.25-0.25-0.5-0.5-0.75-0.75c-0.109,1.77-0.53,3.275-0.322,5.057
				c0.154,1.323,0.546,2.57,1.081,3.785c0.865,1.966,2.91,3.576,5.06,2.655c1.719-0.736,2.126-3.728,1.187-5.116
				c-1.157-1.71-3.812-1.699-5.567-1.236c-0.935,0.247-0.538,1.694,0.398,1.447c1.217-0.322,2.417-0.322,3.542,0.293
				c1.764,0.965-0.285,5.416-2.78,2.147c-2.075-2.72-1.286-5.962-1.097-9.032c0.025-0.408-0.36-0.75-0.75-0.75
				c-0.148,0-0.296,0-0.444,0C239.31,282.959,239.31,284.459,240.277,284.459L240.277,284.459z"/>
		</g>
	</g>
	<g>
		<g>
			<path d="M264.99,294.188c0.18-4.359,1.325-8.59,1.331-12.994c-0.376,0.216-0.752,0.432-1.128,0.647
				c2.159,1.387,3.304,3.921,4.929,5.838c1.595,1.881,3.333,3.666,5.125,5.362c0.243-0.418,0.486-0.836,0.729-1.254
				c-1.423-0.222-2.696-1.113-4.056-1.592c-1.705-0.601-3.505-0.938-5.263-1.342c-0.941-0.216-1.341,1.23-0.398,1.447
				c1.768,0.406,3.527,0.806,5.262,1.341c1.416,0.437,2.579,1.361,4.056,1.593c0.686,0.106,1.326-0.689,0.729-1.254
				c-1.999-1.894-3.891-3.907-5.67-6.006c-1.605-1.894-2.516-4.034-4.688-5.429c-0.485-0.312-1.127,0.098-1.128,0.647
				c-0.006,4.401-1.151,8.628-1.331,12.994C263.45,295.156,264.95,295.152,264.99,294.188L264.99,294.188z"/>
		</g>
	</g>
	<g>
		<g>
			<path d="M282.79,299.33c0.075,0.103,0.15,0.205,0.225,0.308c0.124,0.937,1.604,0.971,1.5,0c-0.158-1.472-0.809-2.654-1.549-3.918
				c-1.039-1.774-1.464-3.559-2.028-5.503c-0.719-2.48,1.641-1.98,3.271-1.984c0.598-0.08,0.783,0.34,0.556,1.26
				c-0.368,0.201-0.757,0.339-1.168,0.414c-0.799,0.199-1.675,0.177-2.494,0.179c-0.967,0.003-0.967,1.503,0,1.5
				c1.878-0.005,4.568-0.023,5.468-2.019c0.882-1.958-1.137-2.837-2.69-2.833c-1.692,0.004-5.041-0.135-5.041,2.316
				c0,0.683,0.679,1.662,0.843,2.226c0.279,0.964,0.409,1.925,0.764,2.872c0.703,1.874,2.348,3.442,2.567,5.49c0.5,0,1,0,1.5,0
				c-0.092-0.695-0.172-0.838-0.664-1.368C283.191,297.558,282.133,298.622,282.79,299.33L282.79,299.33z"/>
		</g>
	</g>
	<g>
		<g>
			<path d="M292.878,298.759c0.148,0.279,0.296,0.559,0.444,0.838c0.464,0.875,1.665,0.106,1.295-0.758
				c-1.136-2.654-2.876-4.991-3.855-7.72c-0.499-1.39-1.129-4.196,1.233-3.753c1.201,0.225,3.342,0.633,3.989,1.752
				c0.039-0.304,0.078-0.606,0.117-0.909c-0.562,0.206-1.125,0.412-1.688,0.618c-0.966,0.02-0.968,1.52,0,1.5
				c1.153-0.023,1.98-0.147,2.748-1.058c0.221-0.262,0.297-0.598,0.117-0.909c-0.972-1.681-6.674-4.06-8.02-1.798
				c-2.334,3.923,2.61,9.64,4.063,13.034c0.432-0.253,0.863-0.505,1.295-0.758c-0.148-0.279-0.296-0.559-0.444-0.838
				C293.72,297.147,292.425,297.905,292.878,298.759L292.878,298.759z"/>
		</g>
	</g>
</g>
<g>
	<g>
		<g>
			<g>
				<path d="M377.319,42.594c3.953,0.622,5.852-2.57,8.72-4.921c5.409-4.435,11.195-7.827,17.328-11.123
					c5.272-2.833,10.104-6.454,14.91-10.02c4.683-3.475,10.138-2.371,15.818-2.295c14.224,0.19,28.476,0.424,42.661-0.841
					c6.713-0.599,13.35-1.81,20.062-2.385c1.452-0.125,3.589-0.2,4.883-0.767c0.562-0.246,2.267-0.56,2.718-1.08
					c-0.996,1.148-2.254,1.386-3.183,2.417c-4.091,4.541-9.415,7.595-14.2,11.317c-4.737,3.685-8.017,9.494-12.121,13.841
					c-1.641,1.738-3.358,3.482-4.744,5.436c-1.195,1.686-2.325,4.176-4.791,4.395c-1.819,0.161-3.763-0.031-5.589-0.065
					c-6.842-0.127-13.674-0.336-20.518-0.364c-14.126-0.057-28.247-0.408-42.374-0.408c-4.458,0-8.931-0.12-13.389-0.021
					c-1.708,0.038-4.647-0.083-5.385,1.828c-0.348,0.904,1.103,1.292,1.447,0.398c0.617-1.603,8.601-0.706,10.278-0.706
					c6.778,0,13.557-0.018,20.335,0.04c14.693,0.125,29.412,0.172,44.1,0.588c4.01,0.114,10.715,1.706,14.19-0.783
					c1.562-1.119,2.895-4.021,3.959-5.361c2.151-2.709,4.75-5.03,6.936-7.711c4.381-5.377,8.416-9.997,14.168-13.985
					c4.432-3.073,9.223-6.66,12.752-10.73c0.318-0.368,0.281-0.912-0.151-1.178c-1.878-1.151-4.628,0.7-6.567,1.01
					c-6.885,1.101-13.988,1.746-20.921,2.574c-13.444,1.605-27.158,1.269-40.669,1.095c-3.234-0.042-6.469-0.088-9.703-0.125
					c-2.335-0.026-5.672-0.636-7.917-0.019c-1.084,0.298-1.907,1.884-2.843,2.591c-2.492,1.884-5.083,3.529-7.56,5.433
					c-5.135,3.947-11.198,6.305-16.619,9.791c-1.949,1.254-3.843,2.622-5.675,4.041c-2.222,1.721-6.914,7.125-9.948,6.648
					C376.772,40.999,376.366,42.444,377.319,42.594L377.319,42.594z"/>
			</g>
		</g>
		<g>
			<g>
				<path d="M376.25,43.738c-2.958,1.75-0.961,8.175-0.747,10.869c0.562,7.067,2.334,13.789,3.261,20.796
					c0.747,5.644,1.184,11.407,2.023,16.966c0.068,0.45,0.737,1.3,1.299,1.311c2.518,0.051,5.247-1.089,7.807-1.388
					c14.547-1.696,28.915-2.836,43.575-3.188c6.882-0.166,13.823-0.355,20.685-0.933c6.162-0.519,14.994-1.372,20.61,1.712
					c0.849,0.466,1.605-0.83,0.758-1.295c-3.412-1.874-7.443-1.82-11.233-2.166c-6.205-0.565-12.503,0.613-18.706,0.772
					c-12.623,0.325-25.21,0.909-37.828,1.483c-5.59,0.254-11.173,0.948-16.679,1.93c-2.554,0.455-5.028,0.606-7.544,1.257
					c-1.023,0.265-2.153-7.956-2.282-8.589c-1.252-6.127-1.497-12.367-2.923-18.491c-0.773-3.325-0.998-6.784-1.322-10.178
					c-0.142-1.482-1.674-8.58,0.005-9.574C377.839,44.541,377.085,43.244,376.25,43.738L376.25,43.738z"/>
			</g>
		</g>
		<g>
			<g>
				<path d="M472.275,82.488c0.147,0.279,0.296,0.559,0.444,0.838c0.369,0.696,1.358,0.327,1.397-0.378
					c0.226-4.078-1.631-8.364-2.464-12.34c-1.247-5.951-1.087-11.795-1.087-17.839c0-0.967-1.5-0.967-1.5,0
					c0,4.958-0.263,9.927,0.506,14.833c0.77,4.908,3.319,10.395,3.045,15.346c0.466-0.126,0.932-0.252,1.397-0.378
					c-0.148-0.279-0.296-0.559-0.444-0.838C473.117,80.876,471.822,81.634,472.275,82.488L472.275,82.488z"/>
			</g>
		</g>
		<g>
			<g>
				<path d="M478.007,90.032c5.357-7.588,10.631-13.969,18.424-19.222c3.345-2.254,6.597-4.639,9.929-6.915
					c1.132-0.773,6.432-3.324,6.362-4.839c-0.135-2.921-1.092-5.862-1.818-8.692c-1.221-4.758-1.768-9.608-2.469-14.471
					c-1.239-8.601-3.217-17.601-3.257-26.297c-0.005-0.967-1.5-0.967-1.5,0c0,0.14,0,0.279,0,0.419c0,0.967,1.5,0.967,1.5,0
					c0-0.14,0-0.279,0-0.419c-0.5,0-1,0-1.5,0c0.035,7.652,1.657,15.493,2.778,23.048c0.642,4.327,1.252,8.658,1.864,12.989
					c0.49,3.471,1.164,8.51,2.56,11.706c1.04,2.383-8.188,7.259-9.771,8.371c-3.508,2.465-6.959,4.953-10.372,7.541
					c-5.928,4.495-9.778,10.01-14.025,16.026C476.153,90.067,477.455,90.816,478.007,90.032L478.007,90.032z"/>
			</g>
		</g>
		<g>
			<g>
				<path d="M456.949,57.887c-3.796,0-8.144-0.587-11.737,0.865c-0.885,0.357-0.499,1.809,0.398,1.446
					c3.439-1.39,7.692-0.812,11.339-0.812C457.917,59.387,457.917,57.887,456.949,57.887L456.949,57.887z"/>
			</g>
		</g>
		<g>
			<g>
				<path d="M457.901,60.923c-1.39,0.915-3.901,0.316-5.501,0.318c-2.413,0.002-4.799,0.114-7.188,0.445
					c-0.955,0.132-0.547,1.577,0.398,1.446c2.907-0.402,5.907-0.507,8.839-0.349c1.409,0.077,2.976,0.247,4.21-0.565
					C459.462,61.689,458.711,60.39,457.901,60.923L457.901,60.923z"/>
			</g>
		</g>
		<g>
			<g>
				<path d="M458.28,64.593c-3.953-0.08-7.941-1.133-11.736,0.446c-0.88,0.366-0.494,1.818,0.398,1.446
					c3.66-1.522,7.527-0.469,11.338-0.392C459.248,66.113,459.246,64.613,458.28,64.593L458.28,64.593z"/>
			</g>
		</g>
		<g>
			<g>
				<path d="M458.788,66.791c-1.971,1.042-5.68,0.284-7.866,0.354c-2.662,0.086-5.306,0.848-7.929,1.248
					c-0.954,0.145-0.547,1.59,0.398,1.446c3.267-0.497,6.416-1.23,9.741-1.23c2.042,0,4.541,0.468,6.413-0.522
					C460.4,67.634,459.642,66.339,458.788,66.791L458.788,66.791z"/>
			</g>
		</g>
	</g>
	<g>
		<g>
			<path d="M387.102,101.52c-4.952,0.484-12.585,10.064-6.081,13.336c1.792,0.901,6.147,1.636,7.187-0.85
				c1.503-3.592-3.254-4.59-5.742-4.077c-0.947,0.195-0.545,1.641,0.398,1.446c1.47-0.303,2.45-0.375,3.708,0.646
				c0.307,1.164-0.01,1.849-0.949,2.055c-0.462,0.103-0.927,0.135-1.396,0.096c-1.693-0.038-4.164-0.89-4.279-2.852
				c-0.189-3.225,4.131-8.005,7.155-8.301C388.055,102.927,388.065,101.426,387.102,101.52L387.102,101.52z"/>
		</g>
	</g>
	<g>
		<g>
			<path d="M391.785,110.538c1.467,0.443,2.938,0.72,4.425,0.215c0.882-0.299,1.798-1.376,1.794-2.353
				c-0.006-1.103-0.785-1.717-1.798-2.021c-1.389-0.417-2.576-0.074-3.664,0.854c-1.809,1.542-1.694,4.557,0.19,5.941
				c1.902,1.397,4.515,1.569,6.796,1.581c0.968,0.005,0.967-1.495,0-1.5c-2.068-0.011-4.763-0.072-6.307-1.653
				c-1.258-1.288-0.042-3.404,1.387-3.879c1.385-0.46,2.566,1.119,0.77,1.729c-1.005,0.341-2.228-0.07-3.194-0.362
				C391.254,108.811,390.861,110.259,391.785,110.538L391.785,110.538z"/>
		</g>
	</g>
	<g>
		<g>
			<path d="M409.049,107.76c-1.21-1.57-4.285-1.01-5.754-0.108c-1.648,1.012-3.111,3.687-0.993,5.054
				c1.607,1.039,4.299,1.558,6.125,0.86c2.588-0.99,3.134-3.195,1.51-5.387c-0.568-0.768-1.872-0.021-1.295,0.757
				c0.423,0.572,0.898,1.221,0.783,1.978c-0.113,0.75-1.184,1.168-1.824,1.344c-1.102,0.302-2.455-0.027-3.512-0.353
				c-1.829-0.565-1.424-1.98-0.037-2.959c0.543-0.382,3.162-1.13,3.702-0.43C408.335,109.271,409.64,108.526,409.049,107.76
				L409.049,107.76z"/>
		</g>
	</g>
	<g>
		<g>
			<path d="M417.656,109.205c2.752-1.483-1.728-2.703-3.006-2.542c-2.659,0.335-4.752,2.567-2.397,4.81
				c1.924,1.833,5.852,2.84,7.811,0.772c1.294-1.367,1.4-3.407,1.248-5.154c-0.199-2.281-0.642-4.792-1.611-6.875
				c-0.317-0.684-1.428-0.341-1.397,0.378c0.215,5.027,3.401,9.241,7.472,11.964c0.807,0.54,1.557-0.76,0.758-1.295
				c-3.612-2.417-6.538-6.192-6.729-10.669c-0.466,0.126-0.932,0.252-1.397,0.378c1.137,2.443,2.126,7.255,0.888,9.722
				c-1.068,2.127-3.657,0.834-5.077,0.23c-1.12-0.36-1.141-1.239-0.061-2.637c0.881-0.299,1.933,0.059,2.743-0.378
				C416.046,108.369,416.804,109.664,417.656,109.205L417.656,109.205z"/>
		</g>
	</g>
	<g>
		<g>
			<path d="M431.477,104.874c-1.195,0.006-2.165,0.169-2.866,1.21c-0.6,0.891-0.305,1.941,0.277,2.748
				c0.647,0.896,1.668,1.498,2.702,1.843c1.188,0.397,1.939-0.139,2.46-1.21c1.047-2.151-0.273-3.943-2.05-5.126
				c-1.278-0.852-3.81-1.932-5.048-0.503c-0.63,0.727,0.426,1.793,1.061,1.061c0.554-0.639,1.919,0.055,2.521,0.342
				c0.841,0.402,1.659,1,2.174,1.782c0.323,0.492,0.252,1.035,0.091,1.567c-0.313,1.035-1.027,0.606-1.719,0.223
				c-0.515-0.284-0.923-0.72-1.214-1.224c-0.593-1.028,0.986-1.21,1.61-1.213C432.444,106.369,432.445,104.869,431.477,104.874
				L431.477,104.874z"/>
		</g>
	</g>
	<g>
		<g>
			<path d="M443.699,111.87c0.147,0.279,0.296,0.559,0.443,0.838c0.343,0.647,1.441,0.366,1.397-0.378
				c-0.106-1.778-0.706-3.363-1.45-4.964c-1.043-2.245-1.886-4.586-2.57-6.971c-0.267-0.928-1.714-0.533-1.447,0.398
				c0.528,1.838,1.248,3.611,1.775,5.449c0.612,2.13,2.053,3.746,2.192,6.088c0.466-0.126,0.932-0.252,1.397-0.378
				c-0.147-0.279-0.296-0.559-0.443-0.838C444.542,110.258,443.247,111.016,443.699,111.87L443.699,111.87z"/>
		</g>
	</g>
	<g>
		<g>
			<path d="M443.596,103.109c0.055,0.563,0.308,0.941,0.663,1.368c0.11-0.418,0.221-0.835,0.331-1.253
				c-2.096,0.764-4.223,1.201-6.457,1.231c-0.967,0.013-0.968,1.513,0,1.5c2.362-0.032,4.638-0.476,6.855-1.285
				c0.556-0.203,0.706-0.803,0.331-1.253c-0.074-0.103-0.149-0.205-0.224-0.308C445.004,102.155,443.503,102.146,443.596,103.109
				L443.596,103.109z"/>
		</g>
	</g>
	<g>
		<g>
			<path d="M454.552,103.197c-1.302-0.033-3.349-0.518-4.512,0.306c-0.89,0.63-2.278,1.425-1.349,2.747
				c1.751,2.489,5.886,4.253,7.45,0.695c1.118-2.542,0.438-5.746-2.033-7.146c-2.388-1.354-5.736-0.758-8.188,0.072
				c-0.911,0.309-0.521,1.758,0.398,1.446c2.469-0.836,6.603-1.656,8.319,0.948c1.408,2.136,0.199,6.769-3.196,4.559
				c-1.196-0.779-1.524-2.03,0.233-2.217c0.945-0.101,1.929,0.066,2.876,0.09C455.52,104.722,455.518,103.222,454.552,103.197
				L454.552,103.197z"/>
		</g>
	</g>
	<g>
		<g>
			<path d="M479.336,95.335c-2.553-1.693-8.059-0.165-7.001,3.68c0.547,1.987,3.198,2.865,4.814,3.709
				c0.849,0.444,3.297,2.193,1.263,2.891c-1.188,0.407-2.441,0.617-3.647,0.962c-0.929,0.266-0.533,1.713,0.398,1.446
				c1.921-0.55,8.411-1.426,5.406-4.64c-1.343-1.437-3.261-2.227-4.953-3.134c-0.524-0.284-1.009-0.626-1.454-1.025
				c-1.01-0.856,0.03-2.879,1.191-2.928c1.092-0.045,2.249-0.314,3.225,0.333C479.387,97.167,480.138,95.867,479.336,95.335
				L479.336,95.335z"/>
		</g>
	</g>
	<g>
		<g>
			<path d="M482.507,101.763c1.794,0.037,3.606,0.361,5.26-0.521c0.445-0.238,0.463-0.832,0.151-1.178
				c-1.88-2.09-9.571-2.458-8.86,1.719c0.248,1.456,2.312,2.144,3.487,2.525c1.385,0.449,2.938,0.781,4.399,0.809
				c0.968,0.019,0.966-1.481,0-1.5c-1.87-0.036-4.041-0.541-5.668-1.459c-1.335-0.752-0.544-1.538,0.634-1.896
				c1.533-0.468,3.806-0.405,4.947,0.864c0.051-0.393,0.102-0.785,0.151-1.178c-1.357,0.725-3.032,0.347-4.502,0.316
				C481.54,100.243,481.542,101.743,482.507,101.763L482.507,101.763z"/>
		</g>
	</g>
	<g>
		<g>
			<path d="M491.448,99.146c1.679,1.255,2.583,3.285,3.842,4.913c0.482,0.624,1.434-0.059,1.254-0.729
				c-0.332-1.234-0.826-2.519-0.443-3.793c0.278-0.929-1.17-1.323-1.447-0.398c-0.467,1.556,0.038,3.078,0.443,4.59
				c0.418-0.243,0.836-0.486,1.254-0.729c-1.371-1.773-2.311-3.775-4.145-5.147C491.43,97.271,490.683,98.574,491.448,99.146
				L491.448,99.146z"/>
		</g>
	</g>
	<g>
		<g>
			<path d="M501.389,97.125c0.326,0.09,0.705,1.007,0.866,1.299c0.316,0.577,0.707,1.131,1.052,1.693
				c0.828,1.349,1.822,2.81,3.407,3.295c0.475,0.145,0.941-0.248,0.949-0.723c0.033-2.067,0.435-4.073,0.861-6.088
				c0.199-0.943-1.247-1.345-1.447-0.398c-0.453,2.145-0.879,4.288-0.914,6.487c0.316-0.241,0.633-0.482,0.949-0.723
				c-1.595-0.488-2.465-2.555-3.279-3.865c-0.512-0.822-1.037-2.144-2.046-2.422C500.854,95.421,500.458,96.869,501.389,97.125
				L501.389,97.125z"/>
		</g>
	</g>
	<g>
		<g>
			<path d="M513.814,103.413c0.32,0.063,0.542,0.351,0.888,0.419c0.461,0.091,0.965-0.207,0.949-0.723
				c-0.055-1.833-0.747-3.526-1.357-5.229c-0.324-0.904-1.774-0.514-1.447,0.398c0.562,1.563,1.255,3.147,1.305,4.831
				c0.316-0.241,0.633-0.482,0.949-0.723c-0.32-0.063-0.542-0.351-0.888-0.419C513.268,101.78,512.866,103.226,513.814,103.413
				L513.814,103.413z"/>
		</g>
	</g>
	<g>
		<g>
			<path d="M511.794,95.056c0.296,0,0.592,0,0.888,0c0.409,0,0.75-0.341,0.75-0.75c0-0.14,0-0.279,0-0.419c0-0.967-1.5-0.967-1.5,0
				c0,0.14,0,0.279,0,0.419c0.25-0.25,0.5-0.5,0.75-0.75c-0.296,0-0.592,0-0.888,0C510.827,93.556,510.827,95.056,511.794,95.056
				L511.794,95.056z"/>
		</g>
	</g>
	<g>
		<g>
			<path d="M525.107,95.476c0.147,0,0.296,0,0.443,0c0-0.5,0-1,0-1.5c-1.011,0.003-2.081,0.027-2.901,0.703
				c-0.927,0.765-1.714,1.769-1.603,3.019c0.103,1.161,1.027,2.343,1.799,3.159c0.759,0.802,1.942,0.998,2.95,1.298
				c0.929,0.278,1.323-1.17,0.398-1.446c-0.527-0.158-1.061-0.291-1.582-0.47c-0.844-0.29-1.32-1.18-1.757-1.891
				c-0.596-0.97-0.099-1.665,0.606-2.404c0.52-0.543,1.408-0.467,2.089-0.469c0.967-0.002,0.968-1.5,0-1.5c-0.147,0-0.296,0-0.443,0
				C524.139,93.976,524.139,95.476,525.107,95.476L525.107,95.476z"/>
		</g>
	</g>
	<g>
		<g>
			<path d="M526.352,96.933c1.581,1.277,3.859,0.715,5.319-0.487c1.344-1.107,1.062-3.559-0.798-3.797
				c-0.729-0.093-1.588,0.436-2.119,0.874c-0.942,0.778-1.124,1.847-1.18,3.037c-0.146,3.07,3.37,4.189,5.765,4.758
				c0.94,0.224,1.34-1.223,0.398-1.446c-1.429-0.339-2.814-0.698-3.954-1.677c-1.118-0.961-0.945-2.975,0.254-3.752
				c1.208-0.783,1.126,0.573,0.302,1.146c-0.73,0.506-2.155,0.907-2.927,0.285C526.667,95.271,525.599,96.325,526.352,96.933
				L526.352,96.933z"/>
		</g>
	</g>
</g>
<g>
	<g>
		<g>
			<g>
				<path d="M199.393,36.681c3.953,0.623,5.853-2.569,8.72-4.92c5.409-4.435,11.195-7.828,17.328-11.123
					c5.273-2.833,10.104-6.453,14.91-10.02c4.683-3.475,10.138-2.371,15.818-2.294c14.224,0.19,28.476,0.423,42.662-0.841
					c6.712-0.598,13.349-1.811,20.061-2.385c1.452-0.125,3.59-0.199,4.884-0.766c0.561-0.246,2.266-0.56,2.717-1.08
					c-0.997,1.15-2.253,1.385-3.183,2.417c-4.091,4.541-9.415,7.594-14.2,11.316c-4.738,3.685-8.017,9.494-12.122,13.841
					c-1.64,1.737-3.358,3.481-4.744,5.436c-1.195,1.686-2.326,4.176-4.791,4.395c-1.819,0.161-3.763-0.031-5.588-0.065
					c-6.842-0.127-13.674-0.336-20.518-0.364c-14.126-0.057-28.247-0.409-42.374-0.409c-4.459,0-8.932-0.12-13.389-0.021
					c-1.708,0.038-4.648-0.083-5.384,1.829c-0.348,0.904,1.103,1.292,1.446,0.398c0.618-1.604,8.602-0.707,10.279-0.707
					c6.778,0,13.557-0.018,20.334,0.04c14.693,0.125,29.413,0.173,44.1,0.589c4.01,0.114,10.715,1.706,14.19-0.784
					c1.562-1.119,2.895-4.021,3.959-5.361c2.151-2.709,4.75-5.029,6.935-7.711c4.381-5.377,8.417-9.997,14.168-13.985
					c4.432-3.073,9.224-6.659,12.752-10.73c0.318-0.368,0.281-0.912-0.151-1.178c-1.878-1.151-4.627,0.701-6.567,1.011
					c-6.884,1.101-13.988,1.746-20.921,2.574c-13.445,1.604-27.158,1.269-40.669,1.094c-3.234-0.042-6.469-0.088-9.703-0.125
					c-2.335-0.027-5.672-0.637-7.917-0.019c-1.084,0.298-1.907,1.884-2.842,2.591c-2.493,1.884-5.083,3.53-7.56,5.433
					c-5.135,3.946-11.198,6.305-16.619,9.791c-1.95,1.254-3.843,2.622-5.676,4.041c-2.222,1.721-6.914,7.125-9.948,6.647
					C198.846,35.085,198.439,36.531,199.393,36.681L199.393,36.681z"/>
			</g>
		</g>
		<g>
			<g>
				<path d="M198.326,37.825c-2.959,1.75-0.962,8.175-0.748,10.869c0.562,7.067,2.333,13.789,3.261,20.796
					c0.364,2.756,0.6,5.53,1.038,8.272c0.325,2.035,0.822,3.893,0.959,5.979c0.042,0.643-0.361,1.433-0.17,2.062
					c1.119,3.699,5.069,1.092,7.835,0.747c14.361-1.793,28.722-3.3,43.228-3.316c6.88-0.007,14.003-0.218,20.856-0.838
					c6.642-0.602,16.174-1.764,22.253,1.574c0.848,0.466,1.605-0.83,0.757-1.295c-3.412-1.874-7.442-1.82-11.232-2.166
					c-6.205-0.565-12.503,0.613-18.706,0.772c-13.227,0.34-26.432,0.85-39.648,1.584c-5.905,0.328-11.651,1.502-17.506,2.185
					c-1.141,0.133-6.493,1.786-6.264-0.377c0.262-2.472-0.422-4.903-0.915-7.31c-1.253-6.127-1.497-12.367-2.922-18.491
					c-0.773-3.324-0.999-6.783-1.322-10.178c-0.142-1.482-1.675-8.58,0.004-9.574C199.914,38.628,199.16,37.331,198.326,37.825
					L198.326,37.825z"/>
			</g>
		</g>
		<g>
			<g>
				<path d="M294.35,76.574c0.148,0.279,0.295,0.559,0.443,0.838c0.368,0.697,1.358,0.326,1.397-0.378
					c0.226-4.078-1.631-8.364-2.464-12.34c-1.247-5.951-1.086-11.795-1.086-17.839c0-0.967-1.5-0.967-1.5,0
					c0,4.958-0.263,9.927,0.505,14.833c0.769,4.908,3.319,10.395,3.044,15.346c0.466-0.126,0.932-0.252,1.397-0.378
					c-0.147-0.28-0.295-0.559-0.443-0.838C295.192,74.962,293.897,75.72,294.35,76.574L294.35,76.574z"/>
			</g>
		</g>
		<g>
			<g>
				<path d="M300.082,84.119c5.359-7.587,10.631-13.968,18.424-19.221c3.345-2.255,6.598-4.639,9.93-6.916
					c1.131-0.773,6.431-3.324,6.361-4.839c-0.135-2.921-1.091-5.861-1.817-8.691c-1.223-4.758-1.769-9.608-2.47-14.471
					c-1.239-8.6-3.217-17.6-3.257-26.297c-0.005-0.967-1.5-0.967-1.5,0c0,0.14,0,0.279,0,0.419c0,0.967,1.5,0.967,1.5,0
					c0-0.14,0-0.279,0-0.419c-0.5,0-1,0-1.5,0c0.035,7.652,1.657,15.492,2.778,23.048c0.642,4.327,1.252,8.658,1.864,12.989
					c0.491,3.474,1.167,8.505,2.561,11.706c1.038,2.384-8.188,7.258-9.771,8.371c-3.507,2.465-6.958,4.953-10.372,7.541
					c-5.928,4.495-9.777,10.01-14.025,16.025C298.227,84.154,299.528,84.902,300.082,84.119L300.082,84.119z"/>
			</g>
		</g>
		<g>
			<g>
				<path d="M279.022,51.974c-3.796,0-8.143-0.587-11.737,0.865c-0.885,0.357-0.499,1.809,0.398,1.446
					c3.439-1.389,7.692-0.811,11.338-0.811C279.99,53.474,279.99,51.974,279.022,51.974L279.022,51.974z"/>
			</g>
		</g>
		<g>
			<g>
				<path d="M279.975,55.01c-1.39,0.915-3.902,0.316-5.501,0.317c-2.413,0.002-4.798,0.114-7.188,0.445
					c-0.955,0.132-0.547,1.578,0.398,1.446c2.907-0.403,5.908-0.508,8.839-0.349c1.409,0.076,2.975,0.247,4.209-0.565
					C281.536,55.776,280.786,54.477,279.975,55.01L279.975,55.01z"/>
			</g>
		</g>
		<g>
			<g>
				<path d="M280.354,58.68c-3.953-0.08-7.941-1.133-11.736,0.446c-0.88,0.366-0.494,1.818,0.398,1.446
					c3.66-1.523,7.528-0.469,11.338-0.392C281.321,60.2,281.319,58.7,280.354,58.68L280.354,58.68z"/>
			</g>
		</g>
		<g>
			<g>
				<path d="M280.862,60.878c-1.971,1.042-5.68,0.284-7.867,0.354c-2.662,0.086-5.305,0.848-7.928,1.247
					c-0.954,0.145-0.547,1.59,0.398,1.446c3.266-0.497,6.416-1.23,9.74-1.23c2.043,0,4.542,0.468,6.413-0.522
					C282.475,61.721,281.716,60.426,280.862,60.878L280.862,60.878z"/>
			</g>
		</g>
	</g>
	<g>
		<g>
			<path d="M204.477,109.415c1.22-1.894,1.364-4.095,1.717-6.27c0.567-3.498,1.07-6.928,1.492-10.456
				c-0.466,0.126-0.932,0.252-1.397,0.378c1.173,2.449,2.058,5.001,2.919,7.572c0.837,2.497,2.065,4.82,2.773,7.337
				c0.262,0.93,1.709,0.534,1.446-0.398c-0.804-2.859-2.161-5.511-3.106-8.331c-0.796-2.375-1.655-4.678-2.738-6.937
				c-0.36-0.751-1.319-0.277-1.397,0.378c-0.378,3.165-0.567,6.33-1.305,9.44c-0.525,2.215-0.425,4.549-1.699,6.528
				C202.657,109.474,203.956,110.225,204.477,109.415L204.477,109.415z"/>
		</g>
	</g>
	<g>
		<g>
			<path d="M212.465,104.886c-0.815-1.921-5.454-3.984-6.252-1.079c-0.256,0.934,1.19,1.33,1.446,0.398
				c0.336-1.224,3.213,0.737,3.511,1.437C211.546,106.531,212.838,105.765,212.465,104.886L212.465,104.886z"/>
		</g>
	</g>
	<g>
		<g>
			<path d="M219.295,100.844c-2.38-1.5-5.784-0.335-5.949,2.6c-0.141,2.507,3.466,3.715,5.324,2.737
				c1.988-1.047,1.865-4.447,1.815-6.288c-0.069-2.562-0.737-5.073-0.818-7.623c-0.5,0-1,0-1.5,0
				c0.343,4.915,3.559,9.878,6.315,13.792c0.552,0.784,1.854,0.036,1.295-0.757c-1.237-1.757-2.431-3.516-3.423-5.425
				c-1.157-2.226-2.512-5.103-2.687-7.609c-0.066-0.955-1.531-0.974-1.5,0c0.076,2.377,0.646,4.74,0.795,7.12
				c0.091,1.448,0.08,2.927-0.312,4.332c-0.228,0.816-0.729,1.345-1.596,1.355c-1.339-0.079-1.832-1.092-1.478-3.039
				c0.913-0.354,2.094-0.446,2.962,0.1C219.359,102.657,220.111,101.358,219.295,100.844L219.295,100.844z"/>
		</g>
	</g>
	<g>
		<g>
			<path d="M226.625,96.662c0.261,0.82,0.625,1.531,1.106,2.245c0.51,0.756,1.357,1.452,1.699,2.298
				c0.54,1.338,1.601,2.727,2.865,3.449c0.45,0.258,0.931,0.002,1.102-0.448c0.354-0.935,0.195-1.92,0.078-2.888
				c-0.17-1.405-0.046-2.888,0.365-4.237c0.283-0.928-1.165-1.321-1.446-0.398c-0.399,1.311-0.467,2.608-0.47,3.971
				c-0.002,1.056,0.417,2.125,0.027,3.154c0.367-0.149,0.734-0.299,1.102-0.448c-1.281-0.733-1.59-1.99-2.394-3.084
				c-0.949-1.292-2.091-2.452-2.587-4.011C227.779,95.345,226.331,95.737,226.625,96.662L226.625,96.662z"/>
		</g>
	</g>
	<g>
		<g>
			<path d="M237.62,99.205c1.412,0.868,3.479,2.075,5.194,1.258c0.853-0.406,1.872-1.42,1.093-2.449
				c-1.729-2.286-5.05-1.885-5.705,1.078c-0.664,3.004,4.043,5.161,6.266,5.604c3.447,0.688,3.539-4.198,4.016-6.358
				c-0.308,0.175-0.615,0.35-0.922,0.524c2.421,0.565,4.228,3.599,5.881,5.256c0.37,0.372,1.152,0.24,1.253-0.331
				c0.336-1.898,0.095-3.736,0.027-5.648c-0.034-0.964-1.534-0.968-1.5,0c0.062,1.762,0.338,3.493,0.027,5.25
				c0.418-0.11,0.835-0.221,1.253-0.331c-1.889-1.894-3.759-4.993-6.543-5.642c-0.382-0.089-0.832,0.113-0.922,0.524
				c-0.315,1.425-0.258,5.691-2.667,5.211c-0.985-0.196-1.888-0.72-2.736-1.233c-0.628-0.392-1.164-0.885-1.605-1.479
				c0.22-0.456,0.44-0.911,0.661-1.366c-0.825-0.285-1.596-0.672-2.313-1.162C237.55,97.401,236.797,98.699,237.62,99.205
				L237.62,99.205z"/>
		</g>
	</g>
	<g>
		<g>
			<path d="M261.43,103.28c0.295,0.279,0.591,0.559,0.887,0.838c0.45,0.425,1.318,0.151,1.28-0.53
				c-0.075-1.363-0.297-2.8-0.603-4.127c-0.399-1.729-0.423-3.547-0.755-5.294c-0.181-0.95-1.626-0.546-1.446,0.398
				c0.295,1.554,0.426,3.128,0.648,4.693c0.204,1.432,0.577,2.885,0.657,4.329c0.427-0.177,0.854-0.354,1.28-0.53
				c-0.296-0.279-0.591-0.559-0.887-0.838C261.789,101.556,260.726,102.614,261.43,103.28L261.43,103.28z"/>
		</g>
	</g>
	<g>
		<g>
			<path d="M262.913,95.852c0.36,0.191,0.3-0.783-0.032-0.559c-0.196,0.132-0.422,0.227-0.641,0.315
				c-0.555,0.223-1.131,0.393-1.704,0.563c-0.979,0.291-2.009,0.491-2.948,0.9c-0.885,0.385-0.121,1.677,0.757,1.295
				c1.226-0.534,2.932-0.792,4.294-1.312c0.992-0.378,2.697-1.615,1.031-2.497C262.816,94.105,262.058,95.399,262.913,95.852
				L262.913,95.852z"/>
		</g>
	</g>
	<g>
		<g>
			<path d="M268.861,103.473c0.32,0.063,0.542,0.351,0.888,0.419c0.465,0.092,0.959-0.208,0.949-0.723
				c-0.036-1.789-0.46-3.509-0.915-5.229c-0.247-0.935-1.694-0.538-1.446,0.398c0.42,1.592,0.828,3.175,0.861,4.831
				c0.316-0.241,0.633-0.482,0.949-0.723c-0.32-0.063-0.542-0.351-0.888-0.419C268.315,101.839,267.912,103.285,268.861,103.473
				L268.861,103.473z"/>
		</g>
	</g>
	<g>
		<g>
			<path d="M269.367,96.462c0.026-1.134,0.417-2.216,0.443-3.354c0.022-0.968-1.478-0.966-1.5,0
				c-0.026,1.134-0.417,2.216-0.443,3.354C267.844,97.43,269.345,97.428,269.367,96.462L269.367,96.462z"/>
		</g>
	</g>
	<g>
		<g>
			<path d="M278.888,94.557c-1.626,0.759-3.589-0.191-4.898,1.308c-0.733,0.839-0.427,1.83,0.192,2.6
				c0.855,1.064,2.455,1.304,3.591,1.924c0.74,0.404,2.253,1.409,0.884,2.132c-1.097,0.579-2.191,1.144-3.32,1.677
				c-0.875,0.413-0.113,1.706,0.757,1.295c2.094-0.989,6.438-2.238,4.1-5.148c-0.93-1.157-2.459-1.571-3.745-2.15
				c-0.257-0.122-0.506-0.26-0.746-0.413c-1.244-0.743,0.555-1.398,1.343-1.407c0.967-0.011,1.724-0.113,2.598-0.521
				C280.521,95.443,279.759,94.15,278.888,94.557L278.888,94.557z"/>
		</g>
	</g>
	<g>
		<g>
			<path d="M285.393,103.699c0.295,0.279,0.591,0.559,0.887,0.838c0.461,0.436,1.297,0.144,1.28-0.53
				c-0.034-1.385-0.458-2.677-0.914-3.972c-0.319-0.906-1.769-0.516-1.446,0.398c0.409,1.162,0.83,2.33,0.86,3.573
				c0.427-0.177,0.854-0.354,1.28-0.53c-0.296-0.279-0.591-0.559-0.887-0.838C285.751,101.975,284.688,103.033,285.393,103.699
				L285.393,103.699z"/>
		</g>
	</g>
	<g>
		<g>
			<path d="M284.01,95.624c0.025-0.72,0.418-1.361,0.443-2.096c0.034-0.968-1.466-0.964-1.5,0c-0.025,0.72-0.418,1.361-0.443,2.096
				C282.477,96.591,283.977,96.588,284.01,95.624L284.01,95.624z"/>
		</g>
	</g>
	<g>
		<g>
			<path d="M291.161,104.118c0.444,0.419,0.887,0.839,1.331,1.258c0.467,0.441,1.286,0.14,1.28-0.53
				c-0.003-0.341,0-0.705-0.083-1.038c-0.073-0.3-0.361-0.746-0.361-0.992c0-1.162,0-2.324,0-3.486c0-1.676,1.611,0.304,1.93,0.768
				c0.861,1.254,1.504,2.649,1.922,4.108c0.266,0.928,1.713,0.533,1.446-0.398c-0.615-2.148-2.317-6.751-5.179-6.693
				c-1.333,0.027-1.62,1.562-1.62,2.585c0,0.916,0,1.831,0,2.747c0,0.889,0.437,1.531,0.444,2.399
				c0.427-0.177,0.854-0.354,1.28-0.53c-0.444-0.419-0.887-0.838-1.331-1.258C291.52,102.393,290.457,103.452,291.161,104.118
				L291.161,104.118z"/>
		</g>
	</g>
	<g>
		<g>
			<path d="M303.672,97.631c0.71-0.026,1.23-0.106,1.535-0.791c0.167-0.375,0.111-0.801-0.269-1.026
				c-0.901-0.533-2.47-1.346-3.294-0.228c-0.823,1.117-0.554,2.798,0.333,3.815c3.102,3.554,4.213-1.853,4.22-4.198
				c-0.5,0-1,0-1.5,0c0.196,2.061,1.415,4.12,2.376,5.922c0.809,1.515,1.681,3.32,0.833,5.016c-0.199-0.431-0.398-0.861-0.597-1.291
				c0.229-0.252,0.474-0.487,0.736-0.704c0.337-0.3,0.699-0.571,1.039-0.868c0.729-0.638-0.336-1.694-1.061-1.061
				c-1.008,0.882-3.201,2.323-2.589,4.011c0.405,1.119,1.624,2.408,2.941,1.635c1.684-0.986,1.505-3.482,1.067-5.053
				c-0.719-2.58-2.991-4.935-3.246-7.607c-0.09-0.946-1.497-0.984-1.5,0c-0.003,0.928-0.055,1.84-0.237,2.753
				c-0.532,2.666-3.5-2.751-0.279-0.848c-0.09-0.342-0.18-0.684-0.269-1.026c-0.08,0.016-0.16,0.032-0.24,0.047
				C302.708,96.167,302.705,97.667,303.672,97.631L303.672,97.631z"/>
		</g>
	</g>
	<g>
		<g>
			<path d="M228.883,112.85c-1.381-2.589-7.277-0.606-5.585,2.138c1.188,1.925,4.1,2.508,6.087,3.266
				c0.362,0.138,1.824,0.706,1.332,1.312c-0.316,0.389-0.918,0.542-1.374,0.68c-0.971,0.294-2.125,0.42-3.128,0.223
				c-0.945-0.186-1.347,1.26-0.398,1.446c2.027,0.397,8.384-0.517,6.001-3.856c-0.54-0.755-1.578-1.078-2.405-1.393
				c-1.304-0.497-2.63-1.005-3.905-1.57c-2.615-1.16,1.322-2.91,2.08-1.489C228.044,114.46,229.338,113.703,228.883,112.85
				L228.883,112.85z"/>
		</g>
	</g>
	<g>
		<g>
			<path d="M236.024,116.885c2.208,0.502,5.059,0.959,6.942-0.612c0.269-0.224,0.257-0.625,0.117-0.909
				c-0.774-1.574-2.639-2.168-4.284-2.167c-1.779,0.001-3.112,0.991-3.591,2.689c-1.043,3.697,4.65,5.174,7.228,5.216
				c0.968,0.016,0.966-1.484,0-1.5c-1.685-0.027-5.526-0.665-5.811-2.816c-0.371-2.801,4.24-2.542,5.163-0.666
				c0.039-0.303,0.078-0.606,0.117-0.909c-1.375,1.147-3.912,0.583-5.483,0.226C235.48,115.224,235.081,116.67,236.024,116.885
				L236.024,116.885z"/>
		</g>
	</g>
	<g>
		<g>
			<path d="M246.226,114.025c1.219,1.935,2.331,3.934,3.55,5.868c0.387,0.615,1.411,0.391,1.397-0.378
				c-0.032-1.826-0.412-3.623-0.444-5.449c-0.017-0.966-1.517-0.968-1.5,0c0.032,1.826,0.412,3.623,0.444,5.449
				c0.466-0.126,0.932-0.252,1.397-0.378c-1.219-1.935-2.331-3.934-3.55-5.868C247.006,112.453,245.708,113.205,246.226,114.025
				L246.226,114.025z"/>
		</g>
	</g>
	<g>
		<g>
			<path d="M258.053,114.177c0.619-0.764,0.818-1.76-0.331-2.091c-0.605-0.175-0.998,0.385-0.922,0.922
				c0.181,1.29,1.249,2.403,1.853,3.53c0.765,1.427,1.627,2.779,2.778,3.926c0.463,0.462,1.28,0.125,1.28-0.53
				c0-2.067,0.24-4.104,0.86-6.088c0.29-0.926-1.159-1.319-1.446-0.398c-0.671,2.147-0.914,4.255-0.914,6.486
				c0.427-0.177,0.854-0.354,1.28-0.53c-0.954-0.951-1.658-2.041-2.316-3.208c-0.593-1.051-1.762-2.4-1.928-3.586
				c-0.308,0.308-0.615,0.615-0.922,0.922c-0.11-0.139-0.221-0.277-0.331-0.416C256.389,113.861,257.444,114.929,258.053,114.177
				L258.053,114.177z"/>
		</g>
	</g>
	<g>
		<g>
			<path d="M268.781,118.038c0.073,0.33,0.378,0.542,0.444,0.838c0.187,0.84,1.473,0.635,1.473-0.199c0-1.537,0-3.074,0-4.61
				c0-0.967-1.5-0.967-1.5,0c0,1.537,0,3.074,0,4.61c0.491-0.066,0.982-0.133,1.473-0.199c-0.073-0.33-0.378-0.542-0.444-0.838
				C270.018,116.695,268.571,117.095,268.781,118.038L268.781,118.038z"/>
		</g>
	</g>
	<g>
		<g>
			<path d="M269.81,110.293c0-0.279,0-0.559,0-0.838c0-0.967-1.5-0.967-1.5,0c0,0.279,0,0.559,0,0.838
				C268.31,111.261,269.81,111.261,269.81,110.293L269.81,110.293z"/>
		</g>
	</g>
	<g>
		<g>
			<path d="M280.398,112.693c0.314,0.078,0.542,0.334,0.887,0.42c0.066-0.491,0.133-0.982,0.199-1.473
				c-2.124,0.002-5.73,0.448-5.411,3.435c0.249,2.328,3.775,3.44,5.656,3.905c0.939,0.232,1.337-1.214,0.398-1.446
				c-1.474-0.365-3.509-0.971-4.427-2.275c-0.5-0.71,0.41-1.591,1.021-1.82c0.865-0.324,1.853-0.297,2.762-0.298
				c0.841-0.001,1.03-1.266,0.199-1.473c-0.314-0.079-0.542-0.334-0.887-0.42C279.858,111.013,279.46,112.46,280.398,112.693
				L280.398,112.693z"/>
		</g>
	</g>
	<g>
		<g>
			<path d="M286.167,112.274c1.6,0.473,6.926,1.219,6.516-1.926c-0.135-1.035-1.254-1.477-2.123-1.755
				c-1.407-0.451-2.38-0.334-3.613,0.48c-2.442,1.613-3.26,4.602-1.096,6.756c2.039,2.03,5.736,1.797,8.259,1.056
				c0.926-0.272,0.532-1.72-0.398-1.446c-2.299,0.675-9.522,0.622-7.312-3.633c0.451-0.868,1.295-1.479,2.128-1.932
				c0.518-0.282,1.438,0.103,1.949,0.267c1.486,0.476-0.17,1.062-0.947,1.138c-0.995,0.096-2.018-0.17-2.963-0.45
				C285.636,110.553,285.241,112.001,286.167,112.274L286.167,112.274z"/>
		</g>
	</g>
</g>
<g>
	<g>
		<g>
			<g>
				<path d="M6.141,36.854c3.953,0.622,5.852-2.57,8.72-4.921c5.409-4.435,11.195-7.828,17.328-11.123
					c5.273-2.833,10.105-6.453,14.91-10.02c4.682-3.475,10.139-2.37,15.818-2.294c14.224,0.19,28.476,0.423,42.662-0.841
					c6.712-0.598,13.349-1.811,20.061-2.385c1.452-0.125,3.589-0.199,4.883-0.766c0.561-0.246,2.268-0.56,2.718-1.08
					c-0.997,1.15-2.252,1.386-3.182,2.417c-4.092,4.54-9.415,7.594-14.201,11.316c-4.738,3.685-8.017,9.494-12.122,13.841
					c-1.641,1.738-3.358,3.481-4.744,5.436c-1.195,1.686-2.325,4.176-4.791,4.395c-1.819,0.161-3.763-0.031-5.588-0.065
					c-6.842-0.127-13.674-0.336-20.518-0.364c-14.126-0.057-28.247-0.408-42.374-0.408c-4.459,0-8.932-0.12-13.389-0.021
					c-1.708,0.038-4.648-0.083-5.385,1.829C6.6,42.703,8.05,43.091,8.394,42.198c0.618-1.603,8.602-0.706,10.28-0.706
					c6.778,0,13.556-0.018,20.334,0.04c14.693,0.125,29.413,0.172,44.1,0.588c4.01,0.114,10.714,1.706,14.19-0.784
					c1.562-1.119,2.895-4.021,3.959-5.361c2.151-2.709,4.75-5.03,6.936-7.711c4.382-5.377,8.416-9.997,14.168-13.985
					c4.432-3.072,9.223-6.659,12.752-10.73c0.319-0.368,0.281-0.912-0.152-1.178c-1.877-1.151-4.627,0.7-6.567,1.01
					c-6.884,1.101-13.988,1.746-20.921,2.574C94.028,7.56,80.315,7.224,66.804,7.05c-3.234-0.042-6.468-0.088-9.703-0.125
					c-2.335-0.026-5.672-0.636-7.917-0.019c-1.084,0.298-1.907,1.884-2.842,2.59c-2.493,1.884-5.083,3.53-7.56,5.433
					c-5.135,3.946-11.197,6.305-16.618,9.791c-1.95,1.254-3.844,2.622-5.676,4.041c-2.222,1.72-6.915,7.125-9.948,6.648
					C5.594,35.259,5.188,36.705,6.141,36.854L6.141,36.854z"/>
			</g>
		</g>
		<g>
			<g>
				<path d="M5.074,37.998c-2.959,1.749-0.962,8.176-0.748,10.869c0.562,7.067,2.334,13.789,3.261,20.796
					c0.365,2.756,0.6,5.53,1.038,8.272c0.325,2.035,0.822,3.893,0.959,5.979c0.042,0.643-0.361,1.433-0.17,2.063
					c1.118,3.698,5.071,1.092,7.835,0.747c14.361-1.793,28.722-3.301,43.228-3.316c6.88-0.007,14.002-0.217,20.856-0.838
					c6.643-0.602,16.173-1.764,22.253,1.573c0.848,0.466,1.605-0.83,0.757-1.295c-3.412-1.873-7.442-1.82-11.232-2.165
					c-6.205-0.565-12.503,0.613-18.707,0.772c-13.226,0.34-26.432,0.849-39.648,1.583c-5.905,0.328-11.651,1.503-17.507,2.185
					c-1.142,0.133-6.492,1.786-6.264-0.377c0.262-2.472-0.422-4.903-0.915-7.31c-1.252-6.127-1.497-12.367-2.922-18.491
					C6.375,55.72,6.15,52.261,5.826,48.867c-0.141-1.481-1.674-8.581,0.005-9.574C6.663,38.801,5.908,37.504,5.074,37.998
					L5.074,37.998z"/>
			</g>
		</g>
		<g>
			<g>
				<path d="M101.097,76.748c0.148,0.279,0.296,0.559,0.444,0.838c0.369,0.696,1.358,0.327,1.397-0.378
					c0.226-4.078-1.631-8.364-2.464-12.34c-1.247-5.951-1.086-11.795-1.086-17.839c0-0.967-1.5-0.967-1.5,0
					c0,4.958-0.263,9.927,0.506,14.833c0.769,4.909,3.318,10.395,3.044,15.346c0.466-0.126,0.932-0.252,1.397-0.378
					c-0.148-0.279-0.296-0.559-0.444-0.838C101.939,75.136,100.645,75.894,101.097,76.748L101.097,76.748z"/>
			</g>
		</g>
		<g>
			<g>
				<path d="M106.83,84.292c5.358-7.588,10.631-13.968,18.424-19.221c3.345-2.254,6.597-4.639,9.929-6.916
					c1.131-0.773,6.432-3.324,6.362-4.839c-0.134-2.921-1.091-5.861-1.818-8.691c-1.222-4.758-1.768-9.608-2.468-14.471
					c-1.239-8.601-3.217-17.601-3.257-26.297c-0.004-0.967-1.5-0.967-1.5,0c0,0.14,0,0.279,0,0.419c0,0.967,1.5,0.967,1.5,0
					c0-0.14,0-0.279,0-0.419c-0.5,0-1,0-1.5,0c0.035,7.652,1.658,15.492,2.778,23.048c0.642,4.327,1.251,8.658,1.864,12.989
					c0.491,3.474,1.167,8.506,2.561,11.706c1.038,2.384-8.188,7.258-9.771,8.371c-3.508,2.465-6.959,4.953-10.373,7.541
					c-5.928,4.494-9.778,10.01-14.025,16.025C104.975,84.327,106.277,85.076,106.83,84.292L106.83,84.292z"/>
			</g>
		</g>
		<g>
			<g>
				<path d="M85.771,52.147c-3.796,0-8.144-0.587-11.737,0.865c-0.885,0.357-0.499,1.809,0.398,1.446
					c3.439-1.39,7.693-0.812,11.339-0.812C86.738,53.647,86.738,52.147,85.771,52.147L85.771,52.147z"/>
			</g>
		</g>
		<g>
			<g>
				<path d="M86.723,55.184c-1.39,0.915-3.902,0.316-5.502,0.318c-2.412,0.002-4.798,0.114-7.188,0.445
					c-0.955,0.132-0.547,1.577,0.398,1.446c2.907-0.402,5.908-0.507,8.839-0.349c1.409,0.077,2.975,0.247,4.209-0.565
					C88.284,55.949,87.534,54.65,86.723,55.184L86.723,55.184z"/>
			</g>
		</g>
		<g>
			<g>
				<path d="M87.102,58.854c-3.953-0.08-7.941-1.133-11.736,0.446c-0.88,0.366-0.495,1.818,0.398,1.446
					c3.66-1.522,7.528-0.469,11.338-0.392C88.069,60.373,88.067,58.873,87.102,58.854L87.102,58.854z"/>
			</g>
		</g>
		<g>
			<g>
				<path d="M87.61,61.051c-1.972,1.042-5.68,0.284-7.868,0.354c-2.662,0.086-5.305,0.848-7.928,1.247
					c-0.954,0.145-0.547,1.59,0.398,1.446c3.266-0.497,6.416-1.23,9.74-1.23c2.043,0,4.542,0.468,6.414-0.522
					C89.223,61.894,88.465,60.599,87.61,61.051L87.61,61.051z"/>
			</g>
		</g>
	</g>
	<g>
		<g>
			<path d="M12.663,93.161c-2.113,0-4.246-0.168-6.105,1.002c-1.551,0.977-2.758,2.925-2.913,4.726
				c-0.171,1.998,1.82,3.57,3.314,4.472c1.976,1.192,5.122,1.207,7.234,0.496c0.912-0.307,0.521-1.756-0.398-1.446
				c-2.748,0.925-8.34,0.17-8.65-3.521c-0.13-1.556,1.787-3.395,3.095-3.914c1.344-0.534,3.005-0.313,4.423-0.313
				C13.63,94.661,13.63,93.161,12.663,93.161L12.663,93.161z"/>
		</g>
	</g>
	<g>
		<g>
			<path d="M18.569,93.911c0,2.683-0.828,7.967,1.703,9.869c0.288,0.217,0.664,0.074,0.909-0.117
				c2.027-1.584,3.021-4.621,4.111-6.858c-0.393,0.051-0.785,0.101-1.178,0.152c2.267,1.935,2.608,5.244,3.877,7.812
				c0.428,0.867,1.722,0.107,1.295-0.757c-1.339-2.71-1.7-6.058-4.111-8.116c-0.341-0.292-0.952-0.312-1.178,0.152
				c-1.004,2.061-2.015,5.099-3.876,6.554c0.303-0.039,0.606-0.078,0.909-0.117c-0.818-0.616-0.882-2.687-0.948-3.583
				c-0.122-1.646-0.011-3.341-0.011-4.992C20.069,92.943,18.569,92.943,18.569,93.911L18.569,93.911z"/>
		</g>
	</g>
	<g>
		<g>
			<path d="M33.876,98.632c0.456,0.419,0.791,0.623,1.417,0.639c0.992,0.024,0.932-1.387,0-1.5
				c-1.169-0.143-1.889-0.545-3.092-0.213c-0.955,0.264-1.768,0.914-2.241,1.775c-0.863,1.57,0.227,3.331,1.953,3.439
				c2.043,0.128,2.903-1.57,3.071-3.366c0.216-2.307-1.435-4.579-3.306-5.724c-0.827-0.506-1.581,0.791-0.757,1.295
				c1.255,0.768,2.093,1.921,2.47,3.341c0.257,0.969,0.121,2.667-1.026,2.956c-1.504,0.379-1.294-1.359-0.396-1.977
				c1.131-0.778,2.136-0.171,3.324-0.026c0-0.5,0-1,0-1.5c-0.119-0.066-0.238-0.133-0.357-0.199
				C34.227,96.918,33.163,97.976,33.876,98.632L33.876,98.632z"/>
		</g>
	</g>
	<g>
		<g>
			<path d="M39.797,103.36c3.855,1.774,2.088-4.857,2.016-6.515c-0.025-0.58-0.075-1.157-0.065-1.738
				c0.008-0.487-0.295-0.269,0.285,0.247c0.527,0.469,0.939,1.078,1.351,1.644c0.45,0.618,0.883,1.245,1.374,1.832
				c0.08,0.096,0.183,0.686,0.204,0.75c0.169,0.5,0.519,0.961,0.779,1.416c0.48,0.839,1.776,0.084,1.295-0.757
				c-0.383-0.67-0.501-1.722-1.005-2.248c-0.729-0.761-1.287-1.68-1.921-2.519c-0.621-0.821-1.79-2.415-3.023-1.972
				c-1.068,0.384-0.854,1.992-0.796,2.857c0.049,0.719,0.091,1.422,0.203,2.135c0.081,0.513,0.189,1.022,0.279,1.533
				c0.077,0.436,0.113,0.875,0.108,1.317c-0.003,0.966-0.112,1.207-0.326,0.723C39.682,101.664,38.919,102.956,39.797,103.36
				L39.797,103.36z"/>
		</g>
	</g>
	<g>
		<g>
			<path d="M48.52,100.309c0.075,0.103,0.15,0.205,0.225,0.308c0.051,0.959,1.511,0.973,1.5,0c-0.03-2.584-0.415-5.191-0.027-7.765
				c-0.367,0.149-0.734,0.299-1.102,0.448c2.833,2.05,2.931,6.294,5.769,8.384c0.78,0.575,1.527-0.728,0.757-1.295
				c-1.359-1.001-2.14-3.039-2.832-4.539c-0.675-1.464-1.62-2.892-2.937-3.845c-0.365-0.265-1.033-0.008-1.102,0.448
				c-0.41,2.722-0.059,5.429-0.027,8.163c0.5,0,1,0,1.5,0c-0.033-0.626-0.218-0.926-0.664-1.368
				C48.893,98.566,47.832,99.627,48.52,100.309L48.52,100.309z"/>
		</g>
	</g>
	<g>
		<g>
			<path d="M56.659,95.816c1.558,0.747,2.985,0.348,4.556-0.191c1.117-0.383,2.773-1.006,3.162-2.278
				c0.321-1.051-0.313-1.964-1.372-2.255c-1.213-0.334-2.65,0.414-3.534,1.179c-1.863,1.613-3.356,4.366-1.288,6.416
				c1.856,1.84,5.484,2.201,7.929,1.815c0.954-0.15,0.547-1.595-0.398-1.446c-1.86,0.293-7.501-0.145-7.04-3.022
				c0.25-1.559,1.848-2.997,3.289-3.446c0.514-0.226,0.755-0.024,0.724,0.604c-0.349,0.385-0.934,0.657-1.41,0.835
				c-1.172,0.438-2.637,1.081-3.86,0.495C56.548,94.105,55.787,95.398,56.659,95.816L56.659,95.816z"/>
		</g>
	</g>
	<g>
		<g>
			<path d="M70.958,97.882c0.113,0.305,0.337,0.551,0.444,0.838c0.273,0.736,1.576,0.698,1.473-0.199
				c-0.124-1.082-0.637-2.085-0.915-3.133c-0.444-1.677-0.887-3.354-1.332-5.03c-0.248-0.935-1.694-0.538-1.446,0.398
				c0.395,1.491,0.789,2.981,1.184,4.472c0.28,1.058,0.886,2.222,1.009,3.293c0.491-0.066,0.982-0.133,1.473-0.199
				c-0.113-0.305-0.337-0.551-0.444-0.838C72.071,96.585,70.621,96.974,70.958,97.882L70.958,97.882z"/>
		</g>
	</g>
	<g>
		<g>
			<path d="M78.695,101.567c0.148,0.14,0.295,0.279,0.443,0.419c0.47,0.444,1.281,0.138,1.28-0.53
				c-0.001-1.72-0.021-3.498-0.99-4.989c-0.524-0.808-1.824-0.057-1.295,0.757c0.822,1.266,0.784,2.776,0.785,4.232
				c0.427-0.177,0.854-0.354,1.28-0.53c-0.148-0.14-0.295-0.279-0.443-0.419C79.053,99.843,77.99,100.901,78.695,101.567
				L78.695,101.567z"/>
		</g>
	</g>
	<g>
		<g>
			<path d="M78.2,92.653c0-0.838,0-1.676,0-2.515c0-0.967-1.5-0.967-1.5,0c0,0.838,0,1.676,0,2.515
				C76.7,93.62,78.2,93.62,78.2,92.653L78.2,92.653z"/>
		</g>
	</g>
	<g>
		<g>
			<path d="M85.351,99.89c0.148,0.14,0.295,0.279,0.443,0.419c0.458,0.432,1.304,0.146,1.28-0.53
				c-0.051-1.458-1.318-4.124-0.22-5.338c0.455-0.503,0.919,1.625,0.938,1.985c0.057,1.046,1.227,1.844,1.331,2.934
				c0.092,0.954,1.592,0.963,1.5,0c-0.065-0.676-0.297-1.243-0.602-1.846c-0.406-0.805-0.697-1.344-0.888-2.219
				c-0.226-1.036-1.002-2.75-2.24-2.75c-1.179,0-1.802,1.871-1.902,2.786c-0.163,1.493,0.53,2.968,0.582,4.448
				c0.427-0.177,0.854-0.354,1.28-0.53c-0.148-0.14-0.295-0.279-0.443-0.419C85.709,98.166,84.646,99.225,85.351,99.89L85.351,99.89
				z"/>
		</g>
	</g>
	<g>
		<g>
			<path d="M94.955,92.538c1.419-0.287,2.251-2.065,0.735-2.953c-1.294-0.758-2.359,0.976-2.545,2.03
				c-0.406,2.299,0.084,3.97,2.528,4.8c2.339,0.794,2.048-3.486,2.052-4.601c-0.466,0.126-0.932,0.252-1.397,0.378
				c1.057,1.938,1.958,3.912,2.926,5.882c0.219,0.482,0.401,0.977,0.548,1.484c0.128,0.4,0.795,3.133-1.001,2.285
				c-1.66-0.783,0.988-3.058,1.484-3.783c0.548-0.8-0.752-1.55-1.295-0.757c-0.806,1.177-3.059,2.821-2.142,4.526
				c0.679,1.262,2.319,2.257,3.715,1.44c1.591-0.932,0.936-3.325,0.501-4.684c-0.794-2.485-2.199-4.871-3.442-7.15
				c-0.363-0.666-1.395-0.353-1.397,0.378c-0.003,1.061-0.025,2.102-0.253,3.144c-0.376-0.247-0.752-0.493-1.129-0.74
				c-0.589-0.705-0.673-1.439-0.251-2.205c0.069-0.181,0.52-1.035-0.035-0.922C93.609,91.284,94.011,92.729,94.955,92.538
				L94.955,92.538z"/>
		</g>
	</g>
	<g>
		<g>
			<path d="M25.976,113.942c0.624-0.059,0.996-0.372,1.167-0.97c0.134-0.469-0.239-0.95-0.723-0.949
				c-1.457,0.001-5.749-0.176-6.179,1.917c-0.459,2.231,2.605,2.99,4.211,3.124c1.421,0.118,3.148,0.038,4.307,1.009
				c0.735,0.617,1.103,0.966,0.136,1.245c-1.491,0.431-3.16,0.26-4.693,0.25c-0.968-0.006-0.967,1.494,0,1.5
				c1.605,0.011,7.579,0.55,6.773-2.493c-0.581-2.194-3.402-2.745-5.27-2.917c-1.369-0.126-3.132,0.013-4.021-1.272
				c-0.143-0.206,1.946-0.745,2.149-0.771c0.853-0.112,1.729-0.089,2.587-0.09c-0.241-0.316-0.482-0.633-0.723-0.949
				c0.093-0.044,0.187-0.088,0.28-0.132C25.021,112.532,25.012,114.033,25.976,113.942L25.976,113.942z"/>
		</g>
	</g>
	<g>
		<g>
			<path d="M31.545,117.268c1.751,0.482,3.518,0.375,5.28,0c0.953-0.203,2.069-0.514,2.798-1.188
				c0.766-0.709,0.223-1.702-0.35-2.297c-0.892-0.928-2.176-1.269-3.423-1.295c-1.81-0.039-3.952,1.753-2.831,3.62
				c1.022,1.703,3.84,2.403,5.626,2.837c0.939,0.229,1.338-1.217,0.398-1.446c-0.973-0.237-6.971-2.207-3.938-3.393
				c0.678-0.265,1.489-0.09,2.153,0.118c0.375,0.117,0.659,0.377,0.954,0.621c0.481,0.398-0.183,0.49-0.424,0.576
				c-1.866,0.667-3.916,0.933-5.845,0.402C31.009,115.564,30.613,117.011,31.545,117.268L31.545,117.268z"/>
		</g>
	</g>
	<g>
		<g>
			<path d="M42.394,113.523c1.909-0.244,2.795,3.258,3.907,4.391c0.471,0.48,1.26,0.11,1.28-0.53
				c0.041-1.277,0.523-2.347,1.229-3.394c0.542-0.805-0.758-1.554-1.295-0.757c-0.854,1.266-1.384,2.615-1.434,4.151
				c0.427-0.177,0.854-0.354,1.28-0.53c-1.514-1.543-2.161-5.189-4.968-4.83C41.448,112.144,41.437,113.646,42.394,113.523
				L42.394,113.523z"/>
		</g>
	</g>
	<g>
		<g>
			<path d="M52.514,111.207c1.154,1.212,1.826,2.848,2.899,4.15c0.685,0.832,1.602,2.155,2.757,2.331
				c0.345,0.053,0.654-0.032,0.847-0.345c1.339-2.166,0.755-4.826,1.775-7.126c0.389-0.876-0.903-1.64-1.295-0.757
				c-0.434,0.978-0.681,2.086-0.963,3.114c-0.118,0.428-0.033,0.979-0.051,1.421c-0.038,0.939-0.267,1.792-0.761,2.591
				c0.282-0.115,0.564-0.23,0.847-0.345c-0.953-0.145-1.854-1.653-2.428-2.349c-0.972-1.176-1.506-2.633-2.566-3.746
				C52.906,109.444,51.847,110.507,52.514,111.207L52.514,111.207z"/>
		</g>
	</g>
	<g>
		<g>
			<path d="M66.713,115.399c0.148,0.14,0.296,0.279,0.444,0.419c0.458,0.432,1.303,0.146,1.28-0.53
				c-0.029-0.863-0.415-1.66-0.444-2.515c-0.033-0.965-1.533-0.968-1.5,0c0.029,0.863,0.415,1.66,0.444,2.515
				c0.427-0.177,0.854-0.354,1.28-0.53c-0.148-0.14-0.296-0.279-0.444-0.419C67.071,113.675,66.009,114.734,66.713,115.399
				L66.713,115.399z"/>
		</g>
	</g>
	<g>
		<g>
			<path d="M65.999,108.692c0.122-0.126,0.236-0.256,0.337-0.4c0.055-0.074,0.107-0.15,0.156-0.228
				c0.124-0.15,0.078-0.147-0.137,0.009c0.407-0.041,0.75-0.31,0.75-0.75c0-0.378-0.342-0.791-0.75-0.75
				c-0.308,0.031-0.604,0.093-0.833,0.321c-0.224,0.224-0.365,0.509-0.584,0.736C64.267,108.328,65.327,109.39,65.999,108.692
				L65.999,108.692z"/>
		</g>
	</g>
	<g>
		<g>
			<path d="M79.138,109.111c0.148,0.14,0.296,0.28,0.444,0.42c0.177-0.427,0.354-0.854,0.53-1.28
				c-1.666-0.018-3.4-0.246-4.932,0.556c-1.06,0.554-1.738,1.983-1.342,3.124c0.794,2.287,4.459,3.166,6.519,3.662
				c0.94,0.227,1.339-1.22,0.398-1.446c-1.729-0.416-3.71-0.953-5.073-2.148c-0.823-0.722-0.352-1.681,0.592-2.058
				c1.163-0.463,2.619-0.203,3.838-0.189c0.644,0.007,1.007-0.829,0.53-1.28c-0.148-0.14-0.296-0.28-0.444-0.42
				C79.497,107.386,78.434,108.445,79.138,109.111L79.138,109.111z"/>
		</g>
	</g>
	<g>
		<g>
			<path d="M84.351,109.724c1.966,0.824,5.714,1.018,5.916-2.027c0.192-2.887-3.635-2.154-4.823-0.539
				c-1.48,2.014-1.534,4.928,0.689,6.436c2.408,1.633,5.75,1.454,8.114-0.173c0.792-0.544,0.042-1.845-0.757-1.295
				c-2.03,1.396-6.338,1.876-7.501-0.978c-0.556-1.365,0.315-2.979,1.399-3.771c0.859-0.502,1.163-0.176,0.911,0.978
				c-0.44,0.399-0.933,0.558-1.479,0.478c-0.701-0.012-1.432-0.286-2.071-0.554C83.857,107.903,83.472,109.355,84.351,109.724
				L84.351,109.724z"/>
		</g>
	</g>
</g>
<g>
	<g>
		<path fill="#009245" d="M128.756,427.179c0,0.342,0,0.685,0,1.026c0,0.896,0.689,1.396,1.5,1.5
			c6.879,0.886,14.853-2.041,21.613-3.302c8.615-1.606,17.86-1.314,26.592-1.314c-0.133-0.982-0.266-1.964-0.399-2.946
			c-0.149,0.021-0.299,0.043-0.448,0.064c-0.453,0.064-0.983,0.595-1.048,1.047c-0.021,0.15-0.042,0.3-0.064,0.45
			c-0.27,1.891,2.621,2.706,2.893,0.797c-0.178,0.179-0.356,0.356-0.535,0.534c1.71-0.245,1.246-2.946-0.399-2.946
			c-7.768,0-15.455,0.313-23.206,0.856c-8.137,0.569-16.892,4.803-24.999,3.76c0.5,0.5,1,1,1.5,1.5c0-0.342,0-0.685,0-1.026
			C131.756,425.245,128.756,425.245,128.756,427.179L128.756,427.179z"/>
	</g>
</g>
<g>
	<g>
		<path fill="#009245" d="M168.449,433.603c2.326-1.068,3.733-3.354,5.77-4.853c2.131-1.569,4.203-3.118,6.539-4.379
			c0.934-0.504,1.022-2.111,0-2.59c-2.26-1.058-4.585-1.775-6.996-2.401c-3.146-0.818-6.145-1.984-9.26-2.878
			c-1.864-0.535-2.654,2.36-0.798,2.893c2.436,0.699,4.771,1.669,7.216,2.346c2.824,0.781,5.654,1.382,8.323,2.631
			c0-0.863,0-1.727,0-2.59c-2.387,1.288-4.346,2.809-6.538,4.378c-2.007,1.437-3.549,3.834-5.77,4.854
			C165.178,431.82,166.704,434.405,168.449,433.603L168.449,433.603z"/>
	</g>
</g>
<g>
	<g>
		<path fill="#009245" d="M257.166,360.757c0.368,0.644,0.671,1.018,1.409,1.202c0.943,0.236,1.899-0.454,1.899-1.446
			c0-10.664-1.069-21.468-1.859-32.116c-0.357-4.812-0.897-9.617-1.351-14.418c-0.323-3.416-0.097-7.174-2.123-10.12
			c-0.565,0.734-1.129,1.469-1.694,2.203c1.703,0.694,2.878,2.367,4.018,3.717c1.503,1.781,3.622,2.859,5.064,4.615
			c1.229,1.496,3.338-0.639,2.121-2.121c-1.438-1.752-3.492-2.947-5.063-4.615c-1.742-1.848-2.895-3.491-5.341-4.488
			c-1.215-0.495-2.402,1.174-1.694,2.203c1.951,2.838,1.75,8.179,1.926,11.542c0.262,5.002,1.081,9.99,1.37,15
			c0.55,9.515,1.627,19.067,1.627,28.599c0.633-0.482,1.266-0.964,1.899-1.446c0.128,0.059,0.256,0.117,0.384,0.177
			C258.797,357.564,256.205,359.075,257.166,360.757L257.166,360.757z"/>
	</g>
</g>
<g>
	<g>
		<path fill="#009245" d="M250.861,305.243c-1.01,3.646-3.821,6.869-4.156,10.655c-0.171,1.928,2.831,1.911,3,0
			c0.147-1.664,1.287-3.242,2.012-4.713c0.818-1.66,1.543-3.359,2.037-5.146C254.271,304.172,251.376,303.38,250.861,305.243
			L250.861,305.243z"/>
	</g>
</g>
<g>
	<g>
		<path fill="#662D91" d="M392.859,128.718c-0.129,1.743-4.338,4.967-5.566,6.168c-2.779,2.715-5.483,5.519-8.41,8.099
			c-5.521,4.866-11.45,9.376-17.203,13.963c-5.969,4.76-11.937,9.478-17.253,14.977c-2.744,2.837-5.264,5.92-7.899,8.86
			c-2.321,2.588-4.133,5.64-7.027,7.663c-1.367,0.956-0.559,3.17,1.155,2.742c4.897-1.224,9.479-3.37,14.358-4.615
			c1.874-0.478,1.078-3.372-0.797-2.893c-4.888,1.247-9.464,3.391-14.358,4.615c0.385,0.914,0.771,1.828,1.155,2.742
			c5.072-3.544,9.295-9.655,13.205-14.397c5.58-6.766,12.756-12.149,19.582-17.572c6.644-5.278,13.462-10.5,19.725-16.228
			c2.747-2.513,5.431-5.239,7.964-7.96c1.818-1.952,4.165-3.396,4.37-6.164C396.002,126.787,393,126.801,392.859,128.718
			L392.859,128.718z"/>
	</g>
</g>
<g>
	<g>
		<path fill="#662D91" d="M330.164,190.371c-1.447-4.174-1.482-8.564-1.484-12.935c-0.001-1.935-3.001-1.935-3,0
			c0.002,4.623,0.062,9.318,1.592,13.732C327.901,192.984,330.799,192.204,330.164,190.371L330.164,190.371z"/>
	</g>
</g>
<g>
	<g>
		<path fill="#662D91" d="M248.756,129.231c0.54,10.946,3.484,21.605,5.69,32.296c1.079,5.231,1.972,10.521,2.765,15.803
			c0.556,3.708,0.054,9.311,2.005,12.658c0.672,1.153,2.359,0.863,2.742-0.358c1.136-3.622,1.829-7.052,2.564-10.77
			c0.374-1.89-2.518-2.695-2.893-0.798c-0.736,3.718-1.428,7.148-2.564,10.77c0.914-0.119,1.828-0.239,2.742-0.358
			c-1.501-2.574-1.063-7.304-1.461-10.184c-0.726-5.262-1.669-10.493-2.643-15.714c-2.067-11.08-5.39-22.031-5.948-33.345
			C251.662,127.306,248.661,127.296,248.756,129.231L248.756,129.231z"/>
	</g>
</g>
<g>
	<g>
		<path fill="#662D91" d="M259.009,189.709c-3.175-2.648-6.306-5.279-9.231-8.206c-1.369-1.37-3.49,0.752-2.121,2.121
			c2.927,2.928,6.055,5.557,9.231,8.206C258.362,193.06,260.497,190.949,259.009,189.709L259.009,189.709z"/>
	</g>
</g>
<g>
	<g>
		<path fill="#662D91" d="M80.626,130.677c4.654,1.225,9.418,6.297,13.269,9.078c4.778,3.451,9.732,6.623,14.75,9.71
			c11.223,6.906,23.283,12.625,33.991,20.334c5.248,3.779,9.78,8.384,14.837,12.386c4.184,3.311,8.836,5.998,13.482,8.594
			c4.951,2.766,9.898,5.539,14.848,8.296c2.213,1.233,4.643,2.049,6.792,3.378c2.19,1.354,3.874,3.31,6.135,4.483
			c1.544,0.801,2.938-1.07,1.817-2.356c-3.248-3.728-3.716-8.948-6.432-13.03c-1.066-1.602-3.666-0.102-2.591,1.515
			c2.887,4.339,3.416,9.636,6.901,13.637c0.606-0.785,1.212-1.57,1.817-2.356c-1.985-1.03-2.952-2.78-4.976-3.723
			c-2.204-1.026-4.366-2.346-6.577-3.424c-5.001-2.439-9.78-5.501-14.677-8.162c-5.483-2.979-10.854-6.151-15.755-10.031
			c-4.811-3.807-9.181-8.109-14.108-11.797c-10.516-7.873-22.772-13.538-33.991-20.334c-5.04-3.053-9.952-6.29-14.75-9.709
			c-4.204-2.996-8.966-8.06-13.985-9.38C79.551,127.292,78.757,130.186,80.626,130.677L80.626,130.677z"/>
	</g>
</g>
<g>
	<g>
		<path fill="#662D91" d="M196.41,207.141c0.342,0,0.684,0,1.025,0c1.645,0,2.109-2.693,0.399-2.946
			c-2.673-0.396-4.819-1.511-7.627-1.588c-2.885-0.079-5.783-0.004-8.669-0.004c-1.935,0-1.935,3,0,3c2.564,0,5.128,0,7.692,0
			c1.263,0,2.497,0.027,3.753,0.209c1.398,0.203,2.625,1.064,4.053,1.276c0.133-0.982,0.266-1.964,0.399-2.946
			c-0.342,0-0.684,0-1.025,0C194.476,204.141,194.476,207.141,196.41,207.141L196.41,207.141z"/>
	</g>
</g>
<g>
	<g>
		<path fill="#662D91" d="M97.91,177.436c0-0.171,0-0.342,0-0.513c-1,0-2,0-3,0c0.042,2.62,0.372,5.198,0.775,7.783
			c0.162,1.034,0.292,2.05,0.304,3.097c-0.005-0.469-1.562-1.846-1.874-2.407c-0.94-1.691-3.532-0.178-2.591,1.514
			c1.259,2.264,4.28,5.544,6.821,2.813c0.892-0.958,0.731-2.79,0.536-3.969c-0.487-2.935-0.924-5.852-0.972-8.832
			c-0.031-1.933-3-1.936-3,0c0,0.171,0,0.342,0,0.513C94.91,179.371,97.91,179.371,97.91,177.436L97.91,177.436z"/>
	</g>
</g>
<g>
	<g>
		<path fill="#662D91" d="M110.291,177.401c-2.372-1.995-9.106-1.389-7.994,2.902c0.794,3.065,4.746,2.7,6.433,4.928
			c0.435,0.575-0.571,0.702-1.322,0.92c-0.879,0.255-1.788,0.397-2.678,0.608c-1.882,0.445-1.083,3.338,0.798,2.893
			c2.456-0.581,7.744-1.435,6.15-5.23c-0.922-2.194-3.499-3.455-5.619-4.215c-0.448-0.161-0.781-0.894-0.941-0.555
			c0.093-0.197,0.771-0.298,0.947-0.341c0.565-0.14,1.623-0.194,2.106,0.212C109.64,180.758,111.773,178.647,110.291,177.401
			L110.291,177.401z"/>
	</g>
</g>
<g>
	<g>
		<path fill="#662D91" d="M121.025,179.013c-1.898-0.034-3.929-0.674-5.768,0.061c-2.271,0.908-3.004,3.801-1.862,5.869
			c1.117,2.023,4.158,2.875,6.302,2.667c1.243-0.121,2.327-0.671,2.951-1.78c0.812-1.442,0.063-2.832-0.124-4.291
			c-0.242-1.892-3.245-1.915-3,0c0.111,0.869,0.448,1.691,0.513,2.564c0.045,0.613-0.621,0.538-1.064,0.551
			c-0.901,0.026-2.712-0.44-3.081-1.391c-0.962-2.481,4.151-1.268,5.132-1.25C122.961,182.048,122.958,179.047,121.025,179.013
			L121.025,179.013z"/>
	</g>
</g>
<g>
	<g>
		<path fill="#662D91" d="M124.708,185.015c0.505,1.201,1.169,1.563,2.472,1.614c0.626,0.024,1.323-0.471,1.446-1.101
			c0.498-2.535,0.152-5.074-1.176-7.31c-0.684,0.685-1.369,1.369-2.052,2.053c3.661,2.551,7.329,6.05,12.039,6.358
			c2.199,0.144,1.972-3.246,1.717-4.523c-0.352-1.763,0.455-3.933-1.169-5.217c-1.5-1.187-3.638,0.921-2.121,2.121
			c0.474,0.375,0.062,1.897,0.115,2.445c0.089,0.91,0.742,2.074,0.163,2.917c0.432-0.248,0.864-0.496,1.295-0.743
			c-3.993-0.262-7.441-3.801-10.525-5.949c-1.269-0.884-2.787,0.816-2.052,2.053c0.906,1.524,1.217,3.252,0.875,4.998
			c0.482-0.367,0.964-0.734,1.446-1.101c-0.158-0.033-0.316-0.065-0.475-0.098c0.349,0.349,0.698,0.698,1.047,1.047
			c-0.05-0.12-0.101-0.24-0.152-0.361C126.861,182.462,123.957,183.232,124.708,185.015L124.708,185.015z"/>
	</g>
</g>
<g>
	<g>
		<path fill="#662D91" d="M210.499,150.5c0.705,1.412,1.376,2.82,1.89,4.314c0.264,0.768,0.337,1.617,0.675,2.353
			c0.322,0.7,0.542,2.497-0.335,0.382c-0.73-1.76-3.634-0.989-2.893,0.798c0.529,1.275,1.366,2.909,2.835,3.306
			c1.472,0.398,2.934-0.226,3.484-1.723c0.675-1.839-0.208-3.495-0.677-5.27c-0.523-1.979-1.479-3.852-2.388-5.674
			C212.226,147.255,209.638,148.775,210.499,150.5L210.499,150.5z"/>
	</g>
</g>
<g>
	<g>
		<path fill="#662D91" d="M224.615,147.731c-2.3-0.035-5.565-0.265-5.783,2.806c-0.117,1.653,1.451,3.066,2.628,3.952
			c0.641,0.482,1.401,0.822,2.105,1.199c0.111,0.06,1.196,0.786,1.252,0.744c-0.467,0.346-1.078,0.453-1.628,0.583
			c-1.881,0.447-1.083,3.34,0.798,2.893c1.458-0.347,2.866-0.915,3.666-2.25c0.799-1.334-0.114-2.954-1.249-3.727
			c-1.396-0.951-3.292-1.533-4.321-2.924c-0.149-0.637-0.28-0.7-0.391-0.189c0.299-0.112,0.633-0.11,0.946-0.125
			c0.657-0.03,1.318,0.028,1.976,0.038C226.551,150.76,226.548,147.76,224.615,147.731L224.615,147.731z"/>
	</g>
</g>
<g>
	<g>
		<path fill="#662D91" d="M235.346,150.77c0-0.171,0-0.342,0-0.513c0-0.824-0.683-1.492-1.5-1.5
			c-1.837-0.018-3.784-0.213-5.31,1.028c-0.891,0.724-1.504,2.005-1.249,3.157c0.265,1.192,1.178,1.989,2.238,2.502
			c1.818,0.88,4.606,1.96,5.981-0.139c0.991-1.513,0.182-3.868-0.214-5.447c-0.471-1.875-3.364-1.079-2.893,0.798
			c0.245,0.976,0.542,1.959,0.527,2.974c-0.001,0.106-0.081,0.303-0.011,0.161c0.037-0.076,0.198-0.235,0.292-0.238
			c-0.54,0.016-1.269-0.373-1.776-0.55c-0.292-0.102-1.082-0.324-1.203-0.64c0.056,0.145-0.027-0.004,0.131-0.191
			c0.09-0.106,0.208-0.195,0.339-0.246c0.978-0.382,2.124-0.178,3.146-0.168c-0.5-0.5-1-1-1.5-1.5c0,0.171,0,0.342,0,0.513
			C232.346,152.704,235.346,152.704,235.346,150.77L235.346,150.77z"/>
	</g>
</g>
<g>
	<g>
		<path fill="#662D91" d="M241.118,156.809c0.269,0.995,0.946,1.513,1.959,1.614c0.807,0.081,1.511-0.743,1.5-1.5
			c-0.039-2.567-0.47-5.089-1.079-7.579c-0.734,0.565-1.469,1.129-2.203,1.694c1.59,0.87,3.008,2.13,4.35,3.336
			c1.151,1.035,2.825,2.468,4.499,1.943c0.62-0.194,1.128-0.766,1.101-1.446c-0.086-2.154-0.892-4.035-1.592-6.04
			c-0.633-1.814-3.532-1.034-2.893,0.798c0.601,1.72,1.411,3.393,1.485,5.242c0.367-0.482,0.734-0.964,1.101-1.446
			c0.224-0.07,0.077,0.006-0.25-0.172c-0.286-0.155-0.555-0.356-0.81-0.558c-0.472-0.374-0.911-0.791-1.342-1.209
			c-1.154-1.12-2.717-2.262-4.135-3.039c-1.167-0.639-2.52,0.402-2.203,1.694c0.548,2.237,0.937,4.472,0.972,6.781
			c0.5-0.5,1-1,1.5-1.5c0.311,0.196,0.623,0.392,0.934,0.588C243.507,154.146,240.612,154.938,241.118,156.809L241.118,156.809z"/>
	</g>
</g>
<g>
	<g>
		<path fill="#662D91" d="M332.039,143.834c0.996,1.997,2.241,4.22,2.387,6.491c0.019,0.281,0.066,0.598,0.025,0.879
			c0.103-0.114,0.204-0.229,0.307-0.343c-0.367-0.021-0.716-0.116-1.047-0.286c-0.977-0.508-1.8-1.478-2.697-2.127
			c-1.57-1.136-3.065,1.468-1.514,2.591c1.374,0.994,2.571,2.518,4.364,2.714c1.383,0.151,2.881,0.105,3.393-1.481
			c1.043-3.234-1.239-7.169-2.628-9.952C333.765,140.589,331.177,142.109,332.039,143.834L332.039,143.834z"/>
	</g>
</g>
<g>
	<g>
		<path fill="#662D91" d="M344.102,140.039c-2.366,0.077-7.345,1.887-4.735,5.024c1.1,1.323,2.884,1.475,4.421,2.047
			c2.342,0.872-0.52,2.094-1.736,2.16c-1.924,0.104-1.934,3.104,0,3c3.2-0.173,6.937-2.591,5.267-6.124
			c-0.7-1.481-2.948-2.044-4.353-2.465c-0.35-0.104-0.699-0.207-1.047-0.317c-0.339-0.108-0.522,0.465,0.01,0.16
			c0.618-0.354,1.473-0.462,2.174-0.485C346.032,142.976,346.038,139.976,344.102,140.039L344.102,140.039z"/>
	</g>
</g>
<g>
	<g>
		<path fill="#662D91" d="M356.41,142.603c-1.573-0.021-3.078-0.233-4.649,0.034c-2.089,0.355-3.183,2.195-2.529,4.196
			c0.803,2.462,3.179,2.934,5.486,2.861c1.224-0.039,2.43-0.62,2.742-1.884c0.262-1.06-0.291-2.109-0.629-3.08
			c-0.632-1.815-3.53-1.034-2.893,0.798c0.202,0.582,0.453,1.147,0.599,1.747c-0.1-0.41,0.557-0.622,0.181-0.581
			c-0.309,0.033-0.635,0.012-0.944,0.004c-0.538-0.013-1.054-0.083-1.519-0.368c-0.106-0.065-0.154-0.368-0.202-0.514
			c-0.038-0.116-0.001-0.418-0.04-0.259c-0.034,0.142-0.311,0.309-0.049,0.145c0.144-0.09,0.151-0.068,0.417-0.135
			c0.423-0.107,0.866-0.098,1.34-0.099c0.899-0.002,1.792,0.123,2.689,0.135C358.345,145.628,358.342,142.628,356.41,142.603
			L356.41,142.603z"/>
	</g>
</g>
<g>
	<g>
		<path fill="#662D91" d="M355.862,145.163c1.218,1.181,2.837,2.678,4.646,2.631c3.073-0.08,1.697-4.081,1.504-5.743
			c-0.633,0.482-1.266,0.964-1.898,1.446c2.905,1.146,5.61,2.996,8.36,4.464c0.938,0.501,2.337-0.106,2.257-1.295
			c-0.119-1.774-0.876-3.381-1.026-5.128c-0.164-1.913-3.166-1.928-3,0c0.151,1.761,0.908,3.365,1.026,5.128
			c0.752-0.432,1.505-0.863,2.257-1.295c-2.999-1.602-5.905-3.515-9.077-4.766c-0.849-0.335-2.005,0.531-1.898,1.446
			c0.07,0.608,0.137,1.096,0.311,1.681c0.067,0.294,0.136,0.589,0.203,0.883c-0.115,0.78,0.143,0.835,0.774,0.167
			c-0.854-0.191-1.713-1.154-2.317-1.741C356.594,141.695,354.471,143.814,355.862,145.163L355.862,145.163z"/>
	</g>
</g>
</svg>
